<?xml version="1.0" encoding="UTF-8"?>
<!-- Generator: visioncortex VTracer 0.6.5 -->
<svg version="1.1" xmlns="http://www.w3.org/2000/svg" width="400" height="340">
<path d="M0 0 C132 0 264 0 400 0 C400 112.2 400 224.4 400 340 C268 340 136 340 0 340 C0 227.8 0 115.6 0 0 Z " fill="#FEFEFE" transform="translate(0,0)"/>
<path d="M0 0 C8.81 6.83 13.83 20.22 15.68 30.93 C18.1 54.11 12.66 75.94 -1.99 94.37 C-6.9 100.27 -12.23 105.93 -18 111 C-18.66 111 -19.32 111 -20 111 C-20 118.92 -20 126.84 -20 135 C-20.33 135 -20.66 135 -21 135 C-21.33 131.7 -21.66 128.4 -22 125 C-23.65 127.31 -25.3 129.62 -27 132 C-27.66 131.67 -28.32 131.34 -29 131 C-29 127.37 -29 123.74 -29 120 C-29.66 120 -30.32 120 -31 120 C-31 120.66 -31 121.32 -31 122 C-32.55 123.39 -34.11 124.66 -35.75 125.94 C-36.77 126.75 -37.78 127.57 -38.79 128.39 C-39.32 128.82 -39.85 129.25 -40.4 129.69 C-52.77 139.77 -66.48 153.28 -68.21 170.03 C-69.09 182.46 -68.16 193.44 -59.94 203.38 C-52.14 211.39 -43.68 214.88 -32.75 215.56 C-32.43 215.58 -32.43 215.58 -30.78 215.69 C-29.19 215.8 -27.59 215.9 -26 216 C-26.01 215.2 -26.02 214.4 -26.03 213.57 C-26.07 210.59 -26.09 207.61 -26.11 204.63 C-26.12 203.34 -26.13 202.05 -26.15 200.76 C-26.18 198.91 -26.19 197.05 -26.2 195.2 C-26.21 194.08 -26.22 192.97 -26.23 191.82 C-25.99 188.93 -25.6 188.24 -24 186 C-23.68 183.73 -23.68 183.73 -23.59 181.11 C-23.55 180.18 -23.51 179.24 -23.47 178.27 C-23.44 177.3 -23.41 176.32 -23.38 175.31 C-23.34 174.32 -23.3 173.34 -23.26 172.32 C-23.16 169.88 -23.08 167.44 -23 165 C-21.68 165.33 -20.36 165.66 -19 166 C-18.67 165.34 -18.34 164.68 -18 164 C-16.68 180.69 -15.64 197.24 -16 214 C-10.64 210.75 -6.18 207.56 -2.29 202.61 C-0.96 200.95 0.47 199.48 2 198 C1.98 198.58 1.95 199.16 1.93 199.76 C1.82 204.67 2.13 208.45 4 213 C4.99 212.34 5.98 211.68 7 211 C4.48 217.26 -1.99 220.6 -7.88 223.34 C-10.24 224.28 -12.6 225.18 -15 226 C-15.01 226.52 -15.02 227.04 -15.03 227.58 C-15.44 246.24 -17.04 264.35 -30.93 278.11 C-36.25 282.77 -40.53 283.19 -47.43 283.1 C-48.5 283.11 -49.57 283.12 -50.68 283.13 C-52.93 283.14 -55.18 283.13 -57.44 283.1 C-60.86 283.06 -64.28 283.12 -67.7 283.18 C-86.53 283.27 -86.53 283.27 -92.84 277.63 C-94.28 276.13 -95.67 274.59 -97 273 C-98.19 271.92 -99.4 270.86 -100.62 269.81 C-111.23 258.78 -119.23 243.11 -119.06 227.69 C-119.05 226.62 -119.04 225.55 -119.04 224.45 C-119.02 223.64 -119.01 222.83 -119 222 C-118.34 222.66 -117.68 223.32 -117 224 C-116.54 224.46 -116.08 224.92 -115.6 225.39 C-114.48 226.52 -113.37 227.65 -112.27 228.8 C-106.88 234.35 -101.08 239.23 -95 244 C-94.47 244.42 -93.93 244.84 -93.38 245.27 C-91.76 246.55 -90.13 247.81 -88.5 249.06 C-88 249.46 -87.49 249.85 -86.97 250.26 C-84.39 252.21 -83.33 253 -80 253 C-78.32 251.32 -78.32 251.32 -76.56 249.12 C-73.51 245.32 -71.34 243.3 -66.41 242.66 C-60.21 242.58 -56.66 242.79 -52 247 C-51.22 247.66 -50.43 248.32 -49.62 249 C-47.01 253.83 -47.29 258.64 -48 264 C-49.75 268.97 -53.7 271.36 -58 274 C-58 274.33 -58 274.66 -58 275 C-49.67 275.41 -44.41 274.73 -37.38 270.38 C-28.69 261.69 -26.62 249.69 -25.81 237.94 C-25.73 236.88 -25.65 235.82 -25.56 234.74 C-25.37 232.16 -25.18 229.58 -25 227 C-25.48 227.02 -25.96 227.04 -26.46 227.06 C-43.26 227.69 -58.45 224.72 -71.32 212.8 C-82.97 200.31 -87.6 186.31 -87.27 169.36 C-86.21 145.8 -71.28 126.86 -54.61 111.42 C-50.74 107.99 -46.63 104.87 -42.53 101.73 C-37.32 97.74 -32.36 93.46 -27.39 89.19 C-26.19 88.16 -24.98 87.15 -23.76 86.14 C-11.4 75.74 -1 62.95 3 47 C3.23 46.2 3.45 45.39 3.69 44.56 C4.53 37.69 4.28 31.55 2 25 C-4.17 24.39 -4.17 24.39 -7.56 26.88 C-8.75 28.28 -8.75 28.28 -10 30 C-10.5 30.67 -10.99 31.34 -11.5 32.03 C-18.3 42.23 -20.1 52.84 -20.19 64.88 C-20.25 70.34 -20.41 74.38 -24.23 78.52 C-29.1 83 -29.1 83 -31 83 C-31.84 43.22 -31.84 43.22 -27 29 C-26.71 28.06 -26.42 27.11 -26.12 26.14 C-22.52 15.77 -16.46 7.26 -7.39 1.11 C-4.67 -0.15 -2.97 -0.37 0 0 Z " fill="#3D5A8C" transform="translate(256,58)"/>
<path d="M0 0 C1.77 -0 3.54 -0.02 5.31 -0.04 C17.58 -0.06 27.83 1.44 38.67 7.19 C38.97 7.33 38.97 7.33 40.48 8.08 C46.11 11.27 50.23 17.64 52.11 23.75 C51.49 28.64 49.01 30.21 45.27 33.22 C44.41 33.87 43.56 34.52 42.67 35.19 C41.92 35.77 41.16 36.36 40.38 36.97 C38.91 38.11 37.43 39.25 35.95 40.38 C32.64 43 29.54 45.83 26.42 48.68 C24.67 50.19 24.67 50.19 23.67 50.19 C23.65 49.82 23.65 49.82 23.56 47.99 C23.07 40.86 22.66 36.02 17.3 30.94 C12.92 28.02 9.41 26.93 4.15 26.99 C3.13 27 2.11 27 1.06 27.01 C0 27.03 -1.05 27.04 -2.14 27.06 C-3.22 27.07 -4.29 27.08 -5.4 27.09 C-8.04 27.11 -10.69 27.14 -13.33 27.19 C-13.45 27.95 -13.56 28.72 -13.68 29.51 C-14.87 37.34 -16.12 45.15 -17.45 52.95 C-17.66 54.19 -17.87 55.44 -18.08 56.68 C-19.4 64.65 -21.02 72.43 -23.33 80.19 C-14.51 79.77 -5.93 79.32 2.67 77.19 C2.38 77.89 2.09 78.6 1.8 79.33 C-1.28 87.13 -3.67 94.81 -4.93 103.1 C-5.33 105.19 -5.33 105.19 -6.33 106.19 C-7.96 106.34 -9.6 106.44 -11.24 106.5 C-12.23 106.54 -13.22 106.59 -14.24 106.63 C-15.28 106.67 -16.32 106.71 -17.39 106.75 C-18.44 106.79 -19.48 106.83 -20.56 106.88 C-23.15 106.99 -25.74 107.09 -28.33 107.19 C-28.46 107.92 -28.59 108.66 -28.72 109.42 C-29.23 112.27 -29.73 115.11 -30.24 117.95 C-30.58 119.88 -30.92 121.8 -31.26 123.73 C-32.29 129.54 -33.34 135.35 -34.55 141.12 C-38.72 161.03 -39.33 177.42 -28.34 195.37 C-25.15 199.84 -21.41 203.52 -17.33 207.19 C-20.74 207.19 -21.2 206.79 -23.74 204.72 C-24.41 204.18 -25.08 203.63 -25.77 203.07 C-26.49 202.47 -27.21 201.87 -27.95 201.25 C-28.7 200.62 -29.45 200 -30.22 199.36 C-65.92 169.12 -65.92 169.12 -67.52 152.13 C-67.5 146.57 -66.85 141.34 -65.79 135.88 C-65.63 135.02 -65.47 134.15 -65.3 133.26 C-64.78 130.46 -64.24 127.67 -63.7 124.87 C-63.34 122.93 -62.97 120.98 -62.6 119.03 C-60.38 107.32 -57.99 95.65 -55.41 84.01 C-53.49 75.22 -51.94 66.4 -50.46 57.54 C-48.92 48.29 -47.15 39.12 -45.06 29.99 C-44.11 25.84 -43.22 21.75 -42.63 17.54 C-41.28 8.16 -41.28 8.16 -38.9 5.72 C-36.68 4.76 -34.73 4.49 -32.33 4.19 C-31.11 3.94 -29.89 3.68 -28.68 3.41 C-24.91 2.6 -21.13 1.86 -17.33 1.19 C-16.39 1.01 -15.45 0.84 -14.48 0.66 C-9.66 -0.06 -4.87 -0 0 0 Z " fill="#574AAF" transform="translate(167.3291015625,118.814697265625)"/>
<path d="M0 0 C0.99 0.44 1.98 0.89 2.99 1.34 C3.26 1.46 3.26 1.46 4.62 2.06 C6.32 2.82 8.02 3.58 9.72 4.35 C11.42 5.11 13.11 5.86 14.81 6.62 C16.35 7.31 17.89 8 19.43 8.69 C22.38 9.92 25.31 10.94 28.35 11.91 C26.69 17.09 24.63 22.02 22.47 27.01 C21.44 29.66 20.8 32.11 20.35 34.91 C14.11 33.03 8.17 30.62 2.22 27.98 C0.61 27.27 -1.02 26.59 -2.65 25.91 C-3.33 25.63 -4 25.34 -4.69 25.05 C-7.79 24.83 -10.11 26.33 -12.78 27.72 C-42.12 42.17 -74.78 52.04 -106.65 58.91 C-107.99 59.24 -109.32 59.57 -110.65 59.91 C-111.77 67.15 -111.9 74.35 -111.9 81.66 C-111.9 82.31 -111.91 82.97 -111.91 83.64 C-111.86 108.98 -109.65 136.18 -100.34 159.91 C-98.9 166.19 -100.94 172.71 -102.28 178.91 C-102.44 179.63 -102.59 180.35 -102.75 181.09 C-103.24 183.37 -103.73 185.64 -104.22 187.91 C-104.55 189.46 -104.88 191.02 -105.21 192.57 C-106.02 196.35 -106.84 200.13 -107.65 203.91 C-111.21 200.63 -112.87 196.86 -114.9 192.53 C-115.3 191.7 -115.69 190.86 -116.1 190 C-120.43 180.56 -123.69 170.85 -126.65 160.91 C-126.86 160.23 -127.06 159.56 -127.27 158.86 C-135.26 131.94 -136.82 102.69 -136.84 74.78 C-136.84 74.05 -136.84 73.32 -136.84 72.57 C-136.84 64.88 -136.7 57.21 -136.27 49.54 C-136.24 48.92 -136.21 48.29 -136.18 47.65 C-135.8 41.88 -135.8 41.88 -133.65 39.91 C-131.45 39.13 -131.45 39.13 -128.69 38.55 C-128.17 38.44 -128.17 38.44 -125.56 37.87 C-124.44 37.63 -123.31 37.4 -122.15 37.16 C-119.75 36.63 -117.36 36.09 -114.96 35.56 C-114.34 35.42 -113.73 35.28 -113.1 35.14 C-80.27 27.79 -47.36 17.26 -17 2.7 C-16.3 2.36 -15.6 2.03 -14.88 1.68 C-13.61 1.07 -12.36 0.44 -11.11 -0.2 C-6.54 -2.47 -4.59 -1.89 0 0 Z " fill="#818BB3" transform="translate(199.65380859375,57.091552734375)"/>
<path d="M0 0 C0.66 0 1.32 0 2 0 C2.16 1.81 2.16 1.81 3 11 C3.58 10.42 4.16 9.84 4.75 9.25 C5.12 8.88 5.12 8.88 7 7 C7.72 6.26 8.44 5.51 9.19 4.75 C11 3 11 3 12 3 C12 9.6 12 16.2 12 23 C14.64 23 17.28 23 20 23 C22.83 23.67 25.35 24.81 28 26 C28.99 26.41 29.98 26.82 31 27.25 C41.31 33.26 46.29 41.86 50 53 C51.44 66.31 49.7 77.54 42 88.69 C39.67 91.55 37.68 93.13 34 94 C32.5 88.85 31.78 84.36 32 79 C31.65 79.51 31.3 80.02 30.93 80.54 C26.68 86.47 22.38 92.33 15 94 C14.94 92.94 14.89 91.87 14.83 90.78 C14.62 86.78 14.41 82.79 14.2 78.8 C14.11 77.08 14.02 75.36 13.93 73.64 C13.45 64.41 12.96 55.2 12 46 C11.01 46 10.02 46 9 46 C8.34 56.56 7.68 67.12 7 78 C6.67 78 6.34 78 6 78 C5.67 83.94 5.34 89.88 5 96 C-4.11 96.36 -10.79 96.4 -19 92 C-19.56 91.7 -20.12 91.4 -20.7 91.09 C-29.61 85.69 -34.85 77.88 -37.58 67.96 C-39.95 56.85 -38.56 45.83 -33 36 C-32.48 35.07 -31.96 34.14 -31.43 33.18 C-25.6 23.45 -18.13 15.8 -9.62 8.44 C-9.02 7.91 -8.41 7.39 -7.78 6.85 C-7.21 6.36 -6.63 5.87 -6.04 5.37 C-5.53 4.94 -5.01 4.5 -4.48 4.06 C-3 3 -3 3 0 2 C0 1.34 0 0.68 0 0 Z " fill="#3E5C8D" transform="translate(225,178)"/>
<path d="M0 0 C2.05 1.65 3.41 2.97 5 5 C5.37 5.47 5.75 5.95 6.13 6.43 C12.91 16.49 12.29 32.73 10.18 44.3 C5.25 68.05 -8.73 87.21 -27.39 102.25 C-33.46 107.14 -39.33 112.26 -45.18 117.41 C-46.34 118.42 -47.51 119.44 -48.68 120.45 C-61.01 131.07 -70.2 142.66 -76 158 C-76.28 158.7 -76.56 159.41 -76.85 160.13 C-79.6 167.91 -79.34 175.49 -79.19 183.62 C-79.17 185.02 -79.16 186.42 -79.15 187.82 C-79.11 191.22 -79.06 194.61 -79 198 C-78.34 197.01 -77.68 196.02 -77 195 C-74.74 199.94 -72.6 204.81 -71 210 C-71.66 210.33 -72.32 210.66 -73 211 C-84.15 197.19 -88.43 182.75 -87 165 C-83.34 138.02 -63.28 117.6 -42.53 101.73 C-37.32 97.74 -32.36 93.46 -27.39 89.19 C-26.19 88.16 -24.98 87.15 -23.76 86.14 C-11.4 75.74 -1 62.95 3 47 C3.23 46.2 3.45 45.39 3.69 44.56 C4.53 37.69 4.28 31.55 2 25 C-4.17 24.39 -4.17 24.39 -7.56 26.88 C-8.75 28.28 -8.75 28.28 -10 30 C-10.5 30.67 -10.99 31.34 -11.5 32.03 C-18.3 42.23 -20.1 52.84 -20.19 64.88 C-20.25 70.34 -20.41 74.38 -24.23 78.52 C-29.1 83 -29.1 83 -31 83 C-31.84 43.22 -31.84 43.22 -27 29 C-26.71 28.06 -26.42 27.11 -26.12 26.14 C-22.52 15.77 -16.46 7.26 -7.39 1.11 C-4.66 -0.16 -2.97 -0.38 0 0 Z " fill="#868EB5" transform="translate(256,58)"/>
<path d="M0 0 C2.31 0 4.62 0 7 0 C7.28 0.76 7.56 1.52 7.85 2.31 C10.64 9.5 13.8 15.19 19 21 C19.51 21.58 20.02 22.16 20.55 22.76 C24.17 26.61 28.22 29.72 32.44 32.88 C40.48 38.93 48.53 45.82 51 56 C52.04 65.14 50.87 72.54 47 81 C46.67 81 46.34 81 46 81 C45.89 80.44 45.78 79.89 45.67 79.31 C45.16 76.86 44.59 74.43 44 72 C43.91 71.65 43.91 71.65 43.48 69.87 C40.72 60.8 32.46 56.41 24.53 52.17 C24.04 51.91 24.04 51.91 21.56 50.62 C19.58 49.58 17.61 48.53 15.63 47.48 C14.76 47.02 13.9 46.57 13.01 46.1 C11 45 11 45 10 44 C10 44.62 9.99 45.24 9.99 45.88 C9.95 51.74 9.89 57.61 9.82 63.48 C9.78 66.5 9.74 69.51 9.73 72.53 C9.71 76.01 9.66 79.49 9.61 82.96 C9.61 83.5 9.61 83.5 9.61 86.2 C9.46 93.58 8.41 100.17 3.35 105.85 C-1.89 110.84 -7.76 113.08 -14.94 113.5 C-20.42 113.34 -24.68 111.31 -29 108 C-31.94 104.78 -31.46 100.92 -31.38 96.79 C-30.69 91.66 -28.12 88.81 -24.29 85.54 C-19.24 81.73 -14.79 79.72 -8.38 79.81 C-7.43 79.82 -6.49 79.83 -5.52 79.83 C-3 80 -3 80 0 81 C0 54.27 0 27.54 0 0 Z " fill="#3C5C90" transform="translate(301,95)"/>
<path d="M0 0 C0.88 2.89 1.05 4.89 0.43 7.84 C0.28 8.58 0.13 9.33 -0.03 10.09 C-0.2 10.88 -0.38 11.68 -0.56 12.5 C-0.75 13.34 -0.93 14.18 -1.12 15.04 C-11.6 61.48 -36.36 102.68 -75 131 C-76 129 -76 129 -75.46 127.25 C-75.31 126.89 -75.31 126.89 -74.59 125.11 C-72.94 120.43 -72.73 116.26 -72.64 111.33 C-72.33 98.81 -72.33 98.81 -69.9 95.51 C-67.57 93.74 -65.01 92.97 -62.24 92.09 C-53.28 89.08 -46.53 79.97 -42 72 C-38.87 65.68 -37.69 59.34 -36.69 52.44 C-35.26 43.15 -33.47 32.87 -28 25 C-24.21 22.3 -20.43 21.26 -16 20 C-8.23 15.92 -2.75 8.25 0 0 Z " fill="#3C4770" transform="translate(319,192)"/>
<path d="M0 0 C0.66 0 1.32 0 2 0 C2 7.92 2 15.84 2 24 C0.35 24.82 -1.3 25.65 -3 26.5 C-11.57 31.22 -17.42 36.85 -21.15 46.01 C-23.26 53.42 -23.09 60.47 -19.88 67.5 C-17.51 71.66 -14.91 74.27 -11 77 C-11 75 -11 75 -12 72.44 C-14.06 66.23 -13.66 60.77 -11 54.81 C-8.35 49.96 -4.94 46.54 0 44 C0.99 44 1.98 44 3 44 C3.88 49.48 4.31 54.9 4.56 60.44 C4.6 61.33 4.65 62.22 4.69 63.14 C5.16 74.09 5.09 85.04 5 96 C-3.87 96.46 -10.96 96.31 -19 92 C-19.56 91.7 -20.12 91.4 -20.7 91.09 C-29.61 85.69 -34.85 77.88 -37.58 67.96 C-39.95 56.85 -38.56 45.83 -33 36 C-32.48 35.07 -31.96 34.14 -31.43 33.18 C-25.6 23.45 -18.13 15.8 -9.62 8.44 C-9.02 7.91 -8.41 7.39 -7.78 6.85 C-7.21 6.36 -6.63 5.87 -6.04 5.37 C-5.53 4.94 -5.01 4.5 -4.48 4.06 C-3 3 -3 3 0 2 C0 1.34 0 0.68 0 0 Z " fill="#F9FBFB" transform="translate(225,178)"/>
<path d="M0 0 C0.66 0.66 1.32 1.32 2 2 C2.23 2.23 2.23 2.23 3.4 3.39 C4.52 4.52 5.63 5.65 6.73 6.8 C12.12 12.35 17.92 17.23 24 22 C24.53 22.42 25.07 22.84 25.62 23.27 C27.24 24.55 28.87 25.81 30.5 27.06 C31 27.46 31.51 27.85 32.03 28.26 C34.61 30.21 35.67 31 39 31 C40.68 29.32 40.68 29.32 42.44 27.12 C45.49 23.32 47.66 21.3 52.59 20.66 C58.79 20.58 62.34 20.79 67 25 C67.39 25.33 67.39 25.33 69.38 27 C71.99 31.83 71.71 36.64 71 42 C69.25 46.97 65.3 49.36 61 52 C61 52.33 61 52.66 61 53 C66.61 53 72.22 53 78 53 C78 53.66 78 54.32 78 55 C78.66 55 79.32 55 80 55 C80 55.66 80 56.32 80 57 C80.66 57 81.32 57 82 57 C82 57.66 82 58.32 82 59 C79.26 59.91 77.45 60.17 74.61 60.26 C74.17 60.27 74.17 60.27 71.93 60.34 C67.86 60.44 63.79 60.52 59.72 60.57 C57.59 60.61 55.45 60.66 53.32 60.73 C32.73 61.43 32.73 61.43 26.26 55.66 C24.79 54.15 23.37 52.6 22 51 C20.8 49.92 19.6 48.86 18.38 47.81 C7.77 36.78 -0.23 21.11 -0.06 5.69 C-0.05 4.62 -0.04 3.55 -0.04 2.45 C-0.02 1.64 -0.01 0.83 0 0 Z " fill="#3D5C8F" transform="translate(137,280)"/>
<path d="M0 0 C3.44 0.73 6.45 2 9.65 3.43 C9.92 3.55 9.92 3.55 11.27 4.15 C12.97 4.91 14.67 5.67 16.38 6.44 C18.07 7.2 19.76 7.95 21.46 8.71 C23 9.4 24.55 10.09 26.09 10.78 C29.03 12.01 31.96 13.03 35 14 C33.34 19.18 31.29 24.11 29.12 29.1 C28.1 31.75 27.46 34.2 27 37 C20.76 35.12 14.82 32.71 8.87 30.07 C7.26 29.36 5.63 28.68 4 28 C3.33 27.72 2.66 27.44 1.96 27.14 C-1.13 26.92 -3.45 28.42 -6.12 29.81 C-27.03 40.11 -49.72 47.55 -72.06 54 C-72.81 54.22 -73.55 54.44 -74.32 54.67 C-75.01 54.86 -75.7 55.05 -76.41 55.25 C-77.01 55.42 -77.61 55.59 -78.23 55.77 C-80.37 56.05 -81.95 55.63 -84 55 C-83.24 54.65 -82.47 54.31 -81.68 53.95 C-60.05 44.12 -38.92 34.19 -20.44 19 C-18.79 17.65 -17.12 16.33 -15.44 15.04 C-9.59 10.54 -4.71 5.68 0 0 Z " fill="#7781AD" transform="translate(193,55)"/>
<path d="M0 0 C1.85 3.48 2.37 6.18 2.75 10.12 C6.12 38.97 16.08 70.08 33 94 C33.98 94.7 34.98 95.37 36 96 C35.41 101.41 34.53 106.68 33.37 112 C33.22 112.72 33.06 113.44 32.9 114.19 C32.42 116.46 31.93 118.73 31.44 121 C31.1 122.55 30.77 124.11 30.44 125.66 C29.63 129.44 28.82 133.22 28 137 C24.45 133.72 22.79 129.95 20.75 125.62 C20.36 124.79 19.96 123.95 19.56 123.09 C15.23 113.66 11.96 103.94 9 94 C8.9 93.66 8.9 93.66 8.38 91.95 C2.66 72.66 -0.22 51.12 -0.1 31.05 C-0.1 30.16 -0.09 29.26 -0.09 28.34 C-0.09 25.52 -0.08 22.7 -0.06 19.88 C-0.06 17.95 -0.05 16.02 -0.05 14.09 C-0.04 9.39 -0.02 4.7 0 0 Z " fill="#3F4B7B" transform="translate(64,124)"/>
<path d="M0 0 C1.69 5.07 2.4 10.51 0.36 15.61 C-6.53 29.14 -17.7 40.83 -29.39 50.25 C-35.46 55.14 -41.33 60.26 -47.18 65.41 C-48.34 66.42 -49.51 67.44 -50.68 68.45 C-63.01 79.07 -72.2 90.66 -78 106 C-78.28 106.7 -78.56 107.41 -78.85 108.13 C-81.6 115.91 -81.34 123.49 -81.19 131.62 C-81.17 133.02 -81.16 134.42 -81.15 135.82 C-81.11 139.22 -81.06 142.61 -81 146 C-80.34 145.01 -79.68 144.02 -79 143 C-76.74 147.94 -74.6 152.81 -73 158 C-73.66 158.33 -74.32 158.66 -75 159 C-86.15 145.19 -90.43 130.75 -89 113 C-85.34 86.02 -65.28 65.6 -44.53 49.73 C-39.32 45.74 -34.36 41.46 -29.39 37.19 C-28.19 36.16 -26.98 35.15 -25.76 34.14 C-14.15 24.37 -6.65 13.54 0 0 Z " fill="#7683AF" transform="translate(258,110)"/>
<path d="M0 0 C2.31 0 4.62 0 7 0 C7.28 0.76 7.56 1.52 7.85 2.31 C10.64 9.5 13.8 15.19 19 21 C19.51 21.58 20.02 22.16 20.55 22.76 C24.17 26.61 28.22 29.72 32.44 32.88 C40.48 38.93 48.53 45.82 51 56 C52.04 65.14 50.87 72.54 47 81 C46.67 81 46.34 81 46 81 C45.89 80.44 45.78 79.89 45.67 79.31 C45.16 76.86 44.59 74.43 44 72 C43.83 71.3 43.66 70.59 43.48 69.87 C40.72 60.8 32.46 56.41 24.53 52.17 C24.04 51.91 24.04 51.91 21.56 50.62 C19.58 49.58 17.61 48.53 15.63 47.48 C14.76 47.02 13.9 46.57 13.01 46.1 C11 45 11 45 10 44 C9.67 60.83 9.34 77.66 9 95 C8.67 95 8.34 95 8 95 C7.67 78.83 7.34 62.66 7 46 C6.67 48.64 6.34 51.28 6 54 C5.67 54 5.34 54 5 54 C4.99 52.93 4.98 51.85 4.97 50.75 C4.93 46.73 4.87 42.71 4.79 38.69 C4.76 36.95 4.74 35.22 4.73 33.49 C4.58 16 4.58 16 0.87 9.74 C-0.71 6.57 -0.25 3.47 0 0 Z " fill="#456191" transform="translate(301,95)"/>
<path d="M0 0 C0.66 0.66 1.32 1.32 2 2 C2.23 2.23 2.23 2.23 3.4 3.39 C4.52 4.52 5.63 5.65 6.73 6.8 C13.16 13.41 20.23 19.14 27.56 24.72 C27.86 24.95 27.86 24.95 29.36 26.09 C30.52 26.98 31.68 27.85 32.85 28.73 C36.89 31.78 36.89 31.78 38 34 C38.02 35.71 37.99 37.42 37.94 39.12 C37.88 44.13 38.56 48.22 40 53 C40.66 53 41.32 53 42 53 C43.37 54.63 44.71 56.3 46 58 C46.66 58.66 47.32 59.32 48 60 C34.06 61.52 34.06 61.52 28.37 57.14 C26.14 55.18 24.07 53.12 22 51 C21.37 50.45 20.74 49.9 20.09 49.34 C9.9 40.27 2.02 25.45 0 12 C-0.07 9.9 -0.09 7.79 -0.06 5.69 C-0.05 4.62 -0.04 3.55 -0.04 2.45 C-0.02 1.64 -0.01 0.83 0 0 Z " fill="#384676" transform="translate(137,280)"/>
<path d="M0 0 C0.88 2.89 1.05 4.89 0.43 7.84 C0.36 8.21 0.36 8.21 -0.03 10.09 C-0.2 10.88 -0.38 11.68 -0.56 12.5 C-0.65 12.92 -0.65 12.92 -1.12 15.04 C-5.46 34.25 -12 52.46 -21 70 C-21.33 69.01 -21.66 68.02 -22 67 C-22.66 67 -23.32 67 -24 67 C-24 67.99 -24 68.98 -24 70 C-25.98 69.67 -27.96 69.34 -30 69 C-31.41 63.35 -30.53 58.38 -29.62 52.69 C-28.21 43.12 -27.37 33.66 -27 24 C-26.3 23.78 -25.6 23.56 -24.88 23.34 C-13.05 19.38 -6.9 13.89 -1 3 C-0.67 2.01 -0.34 1.02 0 0 Z " fill="#516999" transform="translate(319,192)"/>
<path d="M0 0 C0.66 0 1.32 0 2 0 C2.1 5.37 2.1 5.37 2 7 C0.35 8.65 -1.64 8.23 -3.91 8.32 C-4.4 8.34 -4.4 8.34 -6.91 8.44 C-7.43 8.46 -7.43 8.46 -10.06 8.56 C-10.58 8.58 -10.58 8.58 -13.23 8.69 C-15.82 8.8 -18.41 8.9 -21 9 C-21.07 9.37 -21.07 9.37 -21.4 11.24 C-21.9 14.08 -22.4 16.92 -22.91 19.77 C-23.25 21.69 -23.59 23.62 -23.93 25.55 C-24.96 31.36 -26.01 37.16 -27.22 42.94 C-31.39 62.85 -32 79.24 -21.02 97.19 C-17.82 101.65 -14.08 105.33 -10 109 C-13.41 109 -13.87 108.6 -16.41 106.54 C-17.08 105.99 -17.75 105.45 -18.45 104.89 C-18.8 104.59 -18.8 104.59 -20.62 103.06 C-21.37 102.44 -22.12 101.82 -22.89 101.17 C-57.4 71.94 -57.4 71.94 -60.34 53.94 C-60.67 46.87 -58.63 39.83 -57 33 C-56.34 33 -55.68 33 -55 33 C-53.55 38.49 -52.8 43.47 -53.03 49.15 C-53 51 -53 51 -52 53 C-52.66 53 -53.32 53 -54 53 C-53.67 57.29 -53.34 61.58 -53 66 C-52.01 66.33 -51.02 66.66 -50 67 C-49.67 67.66 -49.34 68.32 -49 69 C-48.5 68.84 -48.5 68.84 -46 68 C-45.8 69.76 -45.61 71.52 -45.41 73.27 C-45 75 -45 75 -43 77 C-41.35 77 -39.7 77 -38 77 C-38 69.74 -38 62.48 -38 55 C-37.67 54.83 -37.67 54.83 -36 54 C-36 54.99 -36 55.98 -36 57 C-35.34 57 -34.68 57 -34 57 C-31.29 47.53 -30.72 38.73 -30.94 28.91 C-31.06 23.18 -30.8 17.68 -30 12 C-29.01 12.33 -28.02 12.66 -27 13 C-26.73 12.36 -26.46 11.72 -26.19 11.06 C-25 9 -25 9 -22 8 C-22 6.68 -22 5.36 -22 4 C-21.74 4.04 -21.74 4.04 -20.42 4.25 C-14.4 5.09 -7.91 5.67 -2 4 C-0.68 1.95 -0.68 1.95 0 0 Z " fill="#6934AA" transform="translate(160,217)"/>
<path d="M0 0 C1.77 -0 3.54 -0.02 5.31 -0.04 C16.52 -0.06 26.64 0.96 36.67 6.19 C36.67 6.85 36.67 7.51 36.67 8.19 C35.68 8.19 34.69 8.19 33.67 8.19 C33.67 7.53 33.67 6.87 33.67 6.19 C32.68 6.52 31.69 6.85 30.67 7.19 C29.18 7.3 27.69 7.37 26.19 7.41 C25.29 7.43 24.38 7.45 23.45 7.48 C22.47 7.5 21.49 7.52 20.48 7.54 C19.47 7.56 18.46 7.58 17.41 7.61 C15.27 7.65 13.12 7.7 10.97 7.74 C7.71 7.81 4.45 7.89 1.2 7.97 C-0.89 8.01 -2.99 8.06 -5.08 8.1 C-5.56 8.11 -5.56 8.11 -7.99 8.17 C-14.5 8.29 -20.86 7.9 -27.33 7.19 C-27.66 7.85 -27.99 8.51 -28.33 9.19 C-28.99 8.86 -29.65 8.53 -30.33 8.19 C-32 8.15 -33.66 8.14 -35.33 8.19 C-35.33 8.85 -35.33 9.51 -35.33 10.19 C-35.99 10.19 -36.65 10.19 -37.33 10.19 C-37.29 10.73 -37.29 10.73 -37.08 13.51 C-36.97 14.96 -36.87 16.42 -36.77 17.87 C-36.71 18.59 -36.65 19.32 -36.6 20.06 C-36.33 23.97 -36.31 27.35 -37.33 31.19 C-37.99 31.19 -38.65 31.19 -39.33 31.19 C-39.49 30.36 -39.49 30.36 -40.33 26.19 C-40.99 28.17 -41.65 30.15 -42.33 32.19 C-41.67 32.52 -41.01 32.85 -40.33 33.19 C-40.81 33.57 -41.29 33.95 -41.79 34.34 C-43.85 36.81 -43.79 38.56 -43.95 41.75 C-44.25 47.02 -44.25 47.02 -45.33 49.19 C-44.67 49.19 -44.01 49.19 -43.33 49.19 C-43.99 54.8 -44.65 60.41 -45.33 66.19 C-44.83 66.35 -44.83 66.35 -42.33 67.19 C-43.32 67.19 -44.31 67.19 -45.33 67.19 C-45.25 67.91 -45.16 68.63 -45.08 69.37 C-45.44 73.38 -47.56 75.41 -50.33 78.19 C-50.72 79.53 -51.07 80.89 -51.39 82.25 C-51.57 82.98 -51.74 83.71 -51.93 84.47 C-51.99 84.75 -51.99 84.75 -52.33 86.19 C-52.99 86.19 -53.65 86.19 -54.33 86.19 C-54.31 87.11 -54.29 88.04 -54.27 89 C-54.33 92.19 -54.33 92.19 -55.33 95.19 C-55.33 96.95 -55.33 98.71 -55.3 100.47 C-55.33 102.48 -55.71 104.27 -56.33 106.19 C-56.99 106.19 -57.65 106.19 -58.33 106.19 C-58.29 106.9 -58.26 107.61 -58.22 108.35 C-58.05 114.5 -58.42 118.74 -61.33 124.19 C-61.66 124.19 -61.99 124.19 -62.33 124.19 C-61.71 114.74 -59.81 105.52 -58.02 96.25 C-57.7 94.57 -57.38 92.89 -57.06 91.22 C-55.36 82.34 -53.6 73.49 -51.67 64.66 C-50.64 59.83 -49.76 54.99 -48.94 50.12 C-48.28 46.23 -47.6 42.34 -46.91 38.45 C-46.5 36.13 -46.09 33.8 -45.7 31.48 C-45.14 28.26 -44.55 25.04 -43.93 21.83 C-43.7 20.58 -43.48 19.32 -43.27 18.06 C-41.62 8.24 -41.62 8.24 -38.61 5.79 C-36.5 4.95 -34.57 4.52 -32.33 4.19 C-31.05 3.88 -29.76 3.58 -28.48 3.27 C-27.22 3.03 -25.96 2.79 -24.7 2.56 C-24.08 2.44 -23.45 2.32 -22.8 2.19 C-20.98 1.85 -19.15 1.51 -17.33 1.19 C-16.39 1.01 -15.45 0.84 -14.48 0.66 C-9.66 -0.06 -4.87 -0 0 0 Z " fill="#3B609A" transform="translate(167.3291015625,118.814697265625)"/>
<path d="M0 0 C8.18 0.65 12.47 4.05 17.7 10.12 C22.16 16.58 21.75 23.93 20.64 31.43 C18.64 39.04 12.77 45.47 6.34 49.79 C4 51 4 51 2 51 C1.71 45.99 1.43 40.97 1.15 35.96 C1.05 34.26 0.95 32.56 0.85 30.86 C0.26 20.56 -0.15 10.32 0 0 Z " fill="#F8FAFB" transform="translate(238,221)"/>
<path d="M0 0 C6.45 6.45 5.55 15.46 5.69 23.94 C5.72 25.3 5.76 26.67 5.79 28.03 C5.88 31.36 5.94 34.68 6 38 C6.66 37.01 7.32 36.02 8 35 C8.07 42.08 8.12 49.17 8.16 56.25 C8.17 59.54 8.19 62.83 8.23 66.12 C8.26 69.3 8.28 72.48 8.28 75.66 C8.29 76.87 8.3 78.08 8.32 79.29 C8.34 80.98 8.34 82.68 8.34 84.38 C8.35 85.35 8.35 86.32 8.36 87.31 C7.94 90.48 6.8 92.39 5 95 C4.13 92 3.88 89.35 3.9 86.23 C3.91 85.34 3.91 84.46 3.91 83.54 C3.92 83.08 3.92 83.08 3.94 80.75 C3.94 79.81 3.95 78.88 3.95 77.91 C3.96 75.61 3.98 73.3 4 71 C3.01 71 2.02 71 1 71 C0.83 71.33 0.83 71.33 0 73 C0 48.91 0 24.82 0 0 Z " fill="#395481" transform="translate(301,103)"/>
<path d="M0 0 C0.66 0.33 1.32 0.66 2 1 C-0.57 33 -0.57 33 -3 42 C-0.72 43.14 1.63 44.06 4 45 C4 44.01 4 43.02 4 42 C4.66 42 5.32 42 6 42 C5.48 46.49 4.43 49.43 1.94 53.19 C1.32 54.13 0.69 55.06 0.05 56.03 C-3.19 60.76 -6.57 65.4 -10 70 C-10.66 69.67 -11.32 69.34 -12 69 C-11.61 65.68 -11.22 63.36 -9.44 60.5 C-7.7 57.47 -7.76 55.44 -8 52 C-8.66 52 -9.32 52 -10 52 C-10 51.34 -10 50.68 -10 50 C-11.32 49.34 -12.64 48.68 -14 48 C-13.66 47.01 -13.32 46.01 -12.98 44.99 C-10.78 38.37 -8.84 32.08 -8.12 25.12 C-7.09 16.21 -3.5 8.2 0 0 Z " fill="#3E4B77" transform="translate(291,217)"/>
<path d="M0 0 C0.33 0 0.66 0 1 0 C1.03 0.85 1.05 1.69 1.08 2.56 C1.17 5.76 1.27 8.96 1.37 12.16 C1.42 13.53 1.46 14.9 1.5 16.28 C1.7 23.16 1.95 30.05 2.41 36.92 C2.47 37.88 2.54 38.84 2.61 39.83 C2.74 40.55 2.87 41.26 3 42 C3.66 42.33 4.32 42.66 5 43 C5 43.66 5 44.32 5 45 C5.66 45 6.32 45 7 45 C7.03 45.47 7.07 45.95 7.1 46.44 C7.93 57.17 9.34 67.69 11.44 78.25 C11.54 78.77 11.54 78.77 12.06 81.42 C13.13 86.61 14.36 91.49 16.43 96.37 C17 98 17 98 17 101 C13.31 99.77 13.09 98.89 11.29 95.55 C10.79 94.62 10.29 93.7 9.77 92.75 C9.25 91.76 8.73 90.77 8.19 89.75 C7.65 88.75 7.12 87.76 6.57 86.73 C-2.33 69.99 -2.33 69.99 -4 65 C-3.67 64.01 -3.34 63.02 -3 62 C-2.34 62.66 -1.68 63.32 -1 64 C-0.67 42.88 -0.34 21.76 0 0 Z " fill="#6C77A3" transform="translate(82,118)"/>
<path d="M0 0 C1.85 3.48 2.37 6.18 2.75 10.12 C3.61 17.61 5.19 24.91 6.88 32.25 C7.12 33.34 7.36 34.43 7.62 35.55 C9.08 41.84 10.89 47.82 13.23 53.85 C14 56 14 56 14 58 C13.67 58.16 13.67 58.16 12 59 C9.02 63.29 9.25 68.85 8.79 73.89 C8.71 74.63 8.64 75.37 8.56 76.13 C8.5 76.8 8.44 77.47 8.38 78.16 C7.96 80.18 7.25 81.38 6 83 C5.3 78.63 4.61 74.25 3.92 69.88 C3.68 68.39 3.45 66.91 3.21 65.43 C2.87 63.28 2.53 61.13 2.19 58.98 C2.14 58.65 2.14 58.65 1.88 57.01 C0.52 48.35 -0.15 39.82 -0.1 31.05 C-0.1 30.16 -0.09 29.26 -0.09 28.34 C-0.09 25.52 -0.08 22.7 -0.06 19.88 C-0.06 17.95 -0.05 16.02 -0.05 14.09 C-0.04 9.39 -0.02 4.7 0 0 Z " fill="#4A5585" transform="translate(64,124)"/>
<path d="M0 0 C3.35 3.35 5 7.59 5 12.35 C4.68 15.36 4.19 18.26 3.45 21.19 C3.05 23.68 2.97 25.82 3 28.33 C3.08 42.13 3.08 42.13 -0.03 46.25 C-5.85 52 -5.85 52 -8 52 C-8.05 47 -8.09 42 -8.11 37 C-8.12 35.31 -8.13 33.61 -8.15 31.91 C-8.18 29.46 -8.19 27.01 -8.2 24.56 C-8.21 23.81 -8.22 23.06 -8.23 22.28 C-8.23 17.49 -7.69 13.51 -6 9 C-4.34 7.99 -2.67 6.99 -1 6 C-0.19 2.81 -0.19 2.81 0 0 Z " fill="#818AB0" transform="translate(233,89)"/>
<path d="M0 0 C0.66 0.33 1.32 0.66 2 1 C1.34 1.66 0.68 2.32 0 3 C0.89 3.05 1.78 3.1 2.7 3.15 C3.89 3.22 5.07 3.3 6.25 3.38 C6.84 3.41 7.42 3.44 8.03 3.47 C11.52 3.7 13.95 4.35 17 6 C9.46 9.56 1.86 12.65 -6 15.44 C-7.08 15.82 -8.17 16.21 -9.28 16.61 C-18.78 19.98 -28.35 23.1 -38 26 C-38.3 26.09 -38.3 26.09 -39.81 26.56 C-48.56 29.24 -48.56 29.24 -53 28 C-52.24 27.65 -51.47 27.31 -50.68 26.95 C-15.42 10.92 -15.42 10.92 0 0 Z " fill="#717AA4" transform="translate(162,82)"/>
<path d="M0 0 C0.66 0 1.32 0 2 0 C3.45 5.49 4.2 10.47 3.97 16.15 C4 18 4 18 5 20 C4.34 20 3.68 20 3 20 C3.33 24.29 3.66 28.58 4 33 C4.99 33.33 5.98 33.66 7 34 C7.33 34.66 7.66 35.32 8 36 C8.5 35.83 8.5 35.83 11 35 C11.2 36.76 11.39 38.52 11.59 40.27 C12 42 12 42 14 44 C16.62 44.12 16.62 44.12 19 44 C19.33 42.68 19.66 41.36 20 40 C20.33 40 20.66 40 21 40 C20.67 43.63 20.34 47.26 20 51 C22.31 51 24.62 51 27 51 C26.67 48.69 26.34 46.38 26 44 C27.99 46.65 29.01 49.48 30.19 52.56 C34.01 61.85 39.61 69.21 47 76 C43.59 76 43.13 75.6 40.59 73.54 C39.92 72.99 39.25 72.45 38.55 71.89 C38.2 71.59 38.2 71.59 36.38 70.06 C35.63 69.44 34.88 68.82 34.11 68.17 C-0.4 38.94 -0.4 38.94 -3.34 20.94 C-3.67 13.87 -1.63 6.83 0 0 Z " fill="#652DA8" transform="translate(103,250)"/>
<path d="M0 0 C0.33 0 0.66 0 1 0 C1.23 3.21 1.43 6.42 1.62 9.62 C1.69 10.53 1.75 11.43 1.82 12.36 C1.87 13.25 1.92 14.13 1.98 15.04 C2.03 15.85 2.08 16.65 2.14 17.48 C2 20 2 20 1.01 22.86 C-0.12 26.37 -0.26 29.51 -0.2 33.15 C-0.19 33.81 -0.19 34.46 -0.19 35.14 C-0.18 37.22 -0.15 39.3 -0.12 41.38 C-0.11 42.79 -0.11 44.21 -0.1 45.63 C-0.08 49.09 -0.04 52.54 0 56 C0.66 55.01 1.32 54.02 2 53 C4.26 57.94 6.4 62.81 8 68 C7.67 68.16 7.67 68.16 6 69 C-5.12 55.23 -9.51 40.72 -8 23 C-7.56 20.1 -6.95 17.28 -6.25 14.44 C-6.09 13.8 -5.94 13.15 -5.77 12.49 C-4.52 7.89 -2.53 4.03 0 0 Z " fill="#5F6F9E" transform="translate(177,200)"/>
<path d="M0 0 C0.66 0.33 1.32 0.66 2 1 C2 1.66 2 2.32 2 3 C4 4.62 4 4.62 6 6 C4.38 9.96 1.74 12.54 -1.19 15.56 C-9.68 24.62 -15.1 34.7 -20 46 C-20.33 46 -20.66 46 -21 46 C-23.69 28.38 -23.69 28.38 -19.41 21.62 C-17.41 18.94 -15.27 16.46 -13 14 C-12.01 12.87 -11.01 11.74 -10.02 10.61 C-6.78 6.97 -3.44 3.44 0 0 Z " fill="#6B7AAA" transform="translate(199,172)"/>
<path d="M0 0 C0 3 0 3 -1.65 5.02 C-6.84 10.09 -12.16 14.7 -18 19 C-18.95 19.71 -19.89 20.43 -20.84 21.14 C-21.81 21.87 -22.78 22.59 -23.75 23.31 C-24.63 23.97 -25.51 24.62 -26.42 25.3 C-28.89 26.93 -31.22 28.01 -34 29 C-33.67 28.22 -33.34 27.43 -33 26.62 C-32 24 -32 24 -32 22 C-35.3 22 -38.6 22 -42 22 C-42.33 20.68 -42.66 19.36 -43 18 C-42.74 17.91 -42.74 17.91 -41.42 17.42 C-27.31 12.24 -13.61 6.39 0 0 Z " fill="#8E98BD" transform="translate(191,56)"/>
<path d="M0 0 C2.31 0 4.62 0 7 0 C7.28 0.76 7.56 1.52 7.85 2.31 C10.65 9.52 13.91 15.09 19 21 C19.82 22.02 20.63 23.04 21.44 24.06 C21.95 24.7 22.47 25.34 23 26 C22.67 26.66 22.34 27.32 22 28 C22.66 28.33 23.32 28.66 24 29 C23.01 29 22.02 29 21 29 C21.19 29.6 21.37 30.2 21.56 30.81 C22 33 22 33 21 36 C10.61 31.46 5.03 20.95 0.97 10.99 C-0.3 7.07 -0.39 4.08 0 0 Z " fill="#7080AC" transform="translate(301,95)"/>
<path d="M0 0 C1.32 0.33 2.64 0.66 4 1 C4.33 2.32 4.66 3.64 5 5 C6.32 4.67 7.64 4.34 9 4 C9.85 5.22 10.68 6.45 11.5 7.69 C11.96 8.37 12.43 9.06 12.91 9.76 C14.23 12.48 14.49 14.01 14 17 C12.35 18.99 12.35 18.99 10.06 20.88 C9.24 21.56 8.42 22.25 7.57 22.96 C4.49 25.4 1.4 27.81 -1.72 30.19 C-5.03 32.81 -8.14 35.65 -11.25 38.5 C-13 40 -13 40 -14 40 C-14.05 39.29 -14.1 38.57 -14.15 37.84 C-14.58 32.29 -15.24 27.28 -17 22 C-15.62 20.5 -15.62 20.5 -14 19 C-13.34 19 -12.68 19 -12 19 C-11.01 21.97 -10.02 24.94 -9 28 C-3.25 26.12 -3.25 26.12 -1 25 C-1.66 23.68 -2.32 22.36 -3 21 C-0.03 20.67 2.94 20.34 6 20 C6 15.71 6 11.42 6 7 C5.01 6.67 4.02 6.34 3 6 C2.44 4.06 2.44 4.06 2 2 C1.34 1.34 0.68 0.68 0 0 Z " fill="#683AA7" transform="translate(205,129)"/>
<path d="M0 0 C0 1.32 0 2.64 0 4 C-0.66 4 -1.32 4 -2 4 C-1.96 4.72 -1.92 5.44 -1.88 6.19 C-2.08 10.73 -3.16 13.21 -6.5 16.35 C-7.47 17.12 -8.45 17.88 -9.44 18.62 C-15.51 23.35 -15.51 23.35 -18 26 C-19.98 25.34 -21.96 24.68 -24 24 C-24 23.34 -24 22.68 -24 22 C-24.66 21.67 -25.32 21.34 -26 21 C-23.45 15.6 -19.09 12.48 -14.5 8.81 C-13.73 8.18 -12.96 7.56 -12.16 6.91 C-3.63 0 -3.63 0 0 0 Z " fill="#717EAB" transform="translate(225,153)"/>
<path d="M0 0 C0.66 0.33 1.32 0.66 2 1 C1.67 2.32 1.34 3.64 1 5 C1.66 5 2.32 5 3 5 C2.34 10.61 1.68 16.22 1 22 C1.99 22.33 2.98 22.66 4 23 C3.01 23 2.02 23 1 23 C1.04 23.36 1.04 23.36 1.25 25.19 C0.89 29.19 -1.23 31.23 -4 34 C-4.39 35.34 -4.74 36.7 -5.06 38.06 C-5.24 38.8 -5.42 39.53 -5.6 40.29 C-5.73 40.85 -5.86 41.42 -6 42 C-6.66 42 -7.32 42 -8 42 C-7.98 42.93 -7.96 43.86 -7.94 44.81 C-8 48 -8 48 -9 51 C-9 52.76 -9 54.52 -8.97 56.28 C-9.01 58.3 -9.39 60.08 -10 62 C-10.66 62 -11.32 62 -12 62 C-11.97 62.71 -11.93 63.43 -11.89 64.16 C-11.72 70.31 -12.1 74.55 -15 80 C-15.33 80 -15.66 80 -16 80 C-15.37 70.62 -13.52 61.46 -11.75 52.25 C-11.59 51.43 -11.44 50.62 -11.28 49.78 C-9.36 39.74 -7.4 29.72 -5.19 19.75 C-4.99 18.85 -4.8 17.96 -4.6 17.03 C-4.51 16.63 -4.51 16.63 -4.04 14.61 C-3.89 13.93 -3.73 13.25 -3.57 12.55 C-3 11 -3 11 -1 10 C-0.59 7.71 -0.59 7.71 -0.38 4.94 C-0.3 4.02 -0.23 3.1 -0.15 2.15 C-0.1 1.44 -0.05 0.73 0 0 Z " fill="#565C9B" transform="translate(121,163)"/>
<path d="M0 0 C0 0.66 0 1.32 0 2 C0.53 1.9 1.07 1.81 1.62 1.71 C7.81 0.79 12.96 1.47 19 3 C19 3.33 19 3.66 19 4 C11.08 4.33 3.16 4.66 -5 5 C-5.12 5.84 -5.12 5.84 -5.75 10.06 C-7.31 20.4 -9.19 30.7 -11 41 C-13 39 -13 39 -14 36 C-14.99 36 -15.98 36 -17 36 C-16.52 35.61 -16.03 35.23 -15.53 34.83 C-13.49 32.39 -13.58 30.83 -13.49 27.68 C-13.45 26.65 -13.42 25.62 -13.38 24.56 C-13.36 23.49 -13.34 22.42 -13.31 21.31 C-13.28 20.23 -13.24 19.15 -13.21 18.03 C-13.13 15.35 -13.06 12.68 -13 10 C-12.34 10 -11.68 10 -11 10 C-10.67 8.35 -10.34 6.7 -10 5 C-9.01 4.67 -8.02 4.34 -7 4 C-6.67 3.01 -6.34 2.02 -6 1 C-3 0 -3 0 0 0 Z " fill="#49599C" transform="translate(159,141)"/>
<path d="M0 0 C0.33 0 0.66 0 1 0 C1.2 10.72 1.31 21.39 0.12 32.06 C0.05 32.79 -0.03 33.52 -0.11 34.27 C-0.59 38.14 -1.34 41.43 -3 45 C-3.66 45 -4.32 45 -5 45 C-5.66 45.66 -6.32 46.32 -7 47 C-7.06 43.4 -7.09 39.79 -7.12 36.19 C-7.14 35.16 -7.16 34.14 -7.18 33.08 C-7.18 32.1 -7.19 31.12 -7.2 30.11 C-7.21 29.2 -7.22 28.29 -7.23 27.36 C-6.98 24.82 -6.4 24.05 -5 22 C-4.68 19.73 -4.68 19.73 -4.59 17.11 C-4.55 16.18 -4.51 15.24 -4.47 14.27 C-4.44 13.3 -4.41 12.32 -4.38 11.31 C-4.34 10.32 -4.3 9.34 -4.26 8.32 C-4.16 5.88 -4.08 3.44 -4 1 C-2.68 1.33 -1.36 1.66 0 2 C0 1.34 0 0.68 0 0 Z " fill="#325080" transform="translate(237,222)"/>
<path d="M0 0 C3.81 1.69 6.96 4.05 10.25 6.56 C10.82 7 11.39 7.44 11.98 7.89 C16.95 11.78 21.05 16.06 25 21 C24.01 21 23.02 21 22 21 C21.67 20.01 21.34 19.02 21 18 C19.35 18 17.7 18 16 18 C15.67 18.66 15.34 19.32 15 20 C10.76 19.42 7.85 17.96 4.25 15.69 C3.77 15.39 3.77 15.39 1.33 13.89 C-1 12 -1 12 -1.89 9.96 C-2.05 7.05 -1 4.71 0 2 C0 1.34 0 0.68 0 0 Z " fill="#496597" transform="translate(323,121)"/>
<path d="M0 0 C2.72 0.91 5.35 1.92 8 3 C8 2.01 8 1.02 8 0 C8.66 0 9.32 0 10 0 C9.48 4.49 8.43 7.43 5.94 11.19 C5.63 11.66 5.63 11.66 4.05 14.03 C0.81 18.76 -2.57 23.4 -6 28 C-6.66 27.67 -7.32 27.34 -8 27 C-7.63 23.85 -7.32 21.5 -5.59 18.81 C-3.56 15.22 -2.73 11.69 -1.81 7.69 C-1.64 6.95 -1.46 6.21 -1.28 5.44 C-0.84 3.63 -0.42 1.82 0 0 Z " fill="#425A86" transform="translate(287,259)"/>
<path d="M0 0 C3.64 3.14 4.83 6.42 5.34 11.16 C5.43 19.25 4.42 25.52 1 33 C0.67 33 0.34 33 0 33 C-0.12 32.44 -0.24 31.89 -0.37 31.31 C-1.49 26.19 -2.7 21.09 -4 16 C-3.34 16 -2.68 16 -2 16 C-2.02 15.43 -2.05 14.86 -2.07 14.28 C-2.19 9.07 -1.68 4.93 0 0 Z " fill="#3B5887" transform="translate(347,143)"/>
<path d="M0 0 C0.88 2.9 1.04 4.93 0.44 7.89 C0.3 8.6 0.16 9.31 0.02 10.04 C-0.13 10.77 -0.28 11.5 -0.44 12.25 C-0.51 12.62 -0.51 12.62 -0.88 14.51 C-1.25 16.34 -1.62 18.17 -2 20 C-2.99 19.01 -3.98 18.02 -5 17 C-5.4 17.36 -5.8 17.72 -6.21 18.09 C-6.74 18.56 -7.27 19.02 -7.81 19.5 C-8.33 19.96 -8.86 20.43 -9.39 20.91 C-11 22 -11 22 -14 22 C-14 22.66 -14 23.32 -14 24 C-14.66 24.33 -15.32 24.66 -16 25 C-16.47 25.85 -16.95 26.69 -17.44 27.56 C-17.95 28.37 -18.47 29.17 -19 30 C-19.99 30 -20.98 30 -22 30 C-22 29.34 -22 28.68 -22 28 C-23.65 27.67 -25.3 27.34 -27 27 C-27 26.01 -27 25.02 -27 24 C-26.3 23.78 -25.6 23.56 -24.88 23.34 C-13.05 19.38 -6.9 13.89 -1 3 C-0.67 2.01 -0.34 1.02 0 0 Z " fill="#66769E" transform="translate(319,192)"/>
<path d="M0 0 C0.33 0 0.66 0 1 0 C1.33 15.18 1.66 30.36 2 46 C1.34 45.34 0.68 44.68 0 44 C-0.33 44.16 -0.33 44.16 -2 45 C-2.78 30.65 -3.14 16.37 -3 2 C-2.67 2.99 -2.34 3.98 -2 5 C-1.34 5 -0.68 5 0 5 C0 3.35 0 1.7 0 0 Z " fill="#7A82A8" transform="translate(86,117)"/>
<path d="M0 0 C0.33 0.99 0.66 1.98 1 3 C1.99 3.33 2.98 3.66 4 4 C4.03 4.25 4.03 4.25 4.17 5.53 C4.42 7.81 4.68 10.09 4.94 12.38 C5.02 13.17 5.11 13.96 5.2 14.78 C5.29 15.54 5.38 16.3 5.46 17.09 C5.54 17.79 5.62 18.49 5.7 19.21 C6 21 6 21 7 23 C7.13 25.34 7.04 27.65 7 30 C2.25 31.12 2.25 31.12 0 30 C0 26.7 0 23.4 0 20 C-0.33 20 -0.66 20 -1 20 C-1.03 16.85 -1.05 13.71 -1.06 10.56 C-1.07 9.66 -1.08 8.77 -1.09 7.84 C-1.09 6.99 -1.09 6.13 -1.1 5.25 C-1.1 4.86 -1.1 4.86 -1.11 2.86 C-1 1 -1 1 0 0 Z " fill="#6B2CB5" transform="translate(123,271)"/>
<path d="M0 0 C-0.28 0.66 -0.55 1.33 -0.84 2.01 C-2.22 5.57 -3.43 9.18 -4.62 12.81 C-4.85 13.51 -5.08 14.2 -5.32 14.91 C-5.88 16.61 -6.44 18.3 -7 20 C-7.33 20 -7.66 20 -8 20 C-9.12 13.38 -9.12 13.38 -8 10 C-8.54 10.07 -9.09 10.14 -9.64 10.22 C-10.36 10.31 -11.08 10.4 -11.81 10.5 C-12.52 10.59 -13.23 10.69 -13.96 10.78 C-17.8 11.19 -21.22 10.67 -25 10 C-24.67 9.34 -24.34 8.68 -24 8 C-22.02 8 -20.04 8 -18 8 C-18 7.01 -18 6.02 -18 5 C-17.47 4.88 -16.94 4.76 -16.39 4.63 C-12.66 3.75 -9.39 2.82 -6 1 C-3.88 0.38 -2.21 0 0 0 Z " fill="#5D3EAF" transform="translate(170,196)"/>
<path d="M0 0 C1.13 0.93 2.25 1.87 3.38 2.81 C4 3.33 4.63 3.86 5.27 4.39 C6.84 5.85 7.91 7.17 9 9 C8.67 9.66 8.34 10.32 8 11 C8.66 11.33 9.32 11.66 10 12 C9.01 12 8.02 12 7 12 C7.19 12.6 7.37 13.2 7.56 13.81 C8 16 8 16 7 19 C3.63 17.54 1.39 15.66 -1.19 13.06 C-1.88 12.37 -2.58 11.68 -3.29 10.97 C-5 9 -5 9 -6 6 C-5.2 5.38 -4.39 4.76 -3.56 4.12 C-1 2 -1 2 0 0 Z " fill="#687CA7" transform="translate(315,112)"/>
<path d="M0 0 C0.99 0.33 1.98 0.66 3 1 C4.34 5.41 4.05 8.91 2 13 C0.24 15.11 -1.56 16.72 -4 18 C-6.38 17.81 -6.38 17.81 -8 17 C-7.01 17 -6.02 17 -5 17 C-5 16.34 -5 15.68 -5 15 C-5.66 15 -6.32 15 -7 15 C-7 14.34 -7 13.68 -7 13 C-7.99 12.83 -7.99 12.83 -13 12 C-12.28 11.42 -11.56 10.85 -10.81 10.25 C-10.36 9.88 -9.9 9.52 -9.43 9.14 C-8.09 8.08 -6.74 7.04 -5.38 6 C-3.17 4.14 -1.61 2.37 0 0 Z " fill="#3A5584" transform="translate(224,322)"/>
<path d="M0 0 C2.61 3.11 3.88 6.03 5.12 9.88 C5.46 10.88 5.79 11.89 6.13 12.93 C7.9 19.18 8.16 25.05 8.12 31.5 C8.13 32.33 8.13 33.16 8.14 34.01 C8.13 38.47 7.89 42.63 7 47 C4.43 44.43 4.67 43.25 4.47 39.68 C4.4 38.59 4.34 37.51 4.27 36.39 C4.23 35.81 4.2 35.24 4.17 34.65 C3.6 24.92 2.65 15.42 0.59 5.88 C0 3 0 3 0 0 Z " fill="#49618E" transform="translate(264,70)"/>
<path d="M0 0 C13.78 -0.3 26.45 -0.53 39 6 C39 6.66 39 7.32 39 8 C38.01 8 37.02 8 36 8 C36 7.34 36 6.68 36 6 C35.01 6.33 34.02 6.66 33 7 C31.15 7.08 29.3 7.11 27.46 7.1 C26.38 7.09 25.31 7.09 24.21 7.09 C23.09 7.08 21.97 7.07 20.81 7.06 C19.68 7.06 18.55 7.05 17.38 7.05 C14.59 7.04 11.79 7.02 9 7 C9.33 6.34 9.66 5.68 10 5 C11.85 4.59 11.85 4.59 14.06 4.38 C14.8 4.3 15.53 4.23 16.29 4.15 C16.57 4.12 16.57 4.12 18 4 C18 3.34 18 2.68 18 2 C17.29 2.01 16.57 2.02 15.84 2.04 C10.44 2.09 5.32 1.95 0 1 C0 0.67 0 0.34 0 0 Z " fill="#4B599C" transform="translate(165,119)"/>
<path d="M0 0 C1.75 2.34 2.53 4.45 3.25 7.27 C3.47 8.1 3.68 8.92 3.9 9.77 C4.12 10.63 4.34 11.49 4.56 12.38 C4.78 13.23 5 14.08 5.23 14.95 C6.26 18.95 7.26 22.94 8 27 C4.31 25.77 4.09 24.87 2.3 21.53 C2.06 21.08 2.06 21.08 0.83 18.8 C0.33 17.86 -0.17 16.91 -0.69 15.94 C-1.2 14.99 -1.71 14.04 -2.24 13.06 C-3.5 10.71 -4.75 8.36 -6 6 C-5.34 5.67 -4.68 5.34 -4 5 C-3.67 4.34 -3.34 3.68 -3 3 C-2 1 -2 1 0 0 Z " fill="#5F6B98" transform="translate(91,192)"/>
<path d="M0 0 C0.66 0 1.32 0 2 0 C2.33 2.31 2.66 4.62 3 7 C4.95 5.05 5.85 3.47 7 1 C6.44 7.99 5.38 14.76 3.94 21.62 C3.84 22.08 3.84 22.08 3.37 24.38 C2.92 26.59 2.46 28.79 2 31 C-0.8 28.39 -1.64 26.88 -2 23 C-1.85 22.14 -1.7 21.28 -1.55 20.39 C-0.89 16.3 -0.65 12.26 -0.44 8.12 C-0.39 7.34 -0.35 6.56 -0.31 5.75 C-0.2 3.83 -0.1 1.92 0 0 Z " fill="#3A446D" transform="translate(90,230)"/>
<path d="M0 0 C0.33 0 0.66 0 1 0 C1.31 3.54 1.62 7.08 1.91 10.61 C2.01 11.81 2.11 13.01 2.22 14.21 C3.55 29.15 3.55 29.15 2 35 C1.34 35.66 0.68 36.32 0 37 C0 34.69 0 32.38 0 30 C-1.65 29.67 -3.3 29.34 -5 29 C-4.38 24.29 -3.55 19.7 -2.5 15.06 C-1.39 10.05 -0.51 5.11 0 0 Z " fill="#3B578C" transform="translate(267,89)"/>
<path d="M0 0 C0.66 0 1.32 0 2 0 C2.33 5.94 2.66 11.88 3 18 C3.99 18 4.98 18 6 18 C5.14 29.69 5.14 29.69 3 33 C2.18 33.17 2.18 33.17 -2 34 C-1.34 22.78 -0.68 11.56 0 0 Z " fill="#345286" transform="translate(233,285)"/>
<path d="M0 0 C0 7.26 0 14.52 0 22 C-0.33 22 -0.66 22 -1 22 C-1.33 18.7 -1.66 15.4 -2 12 C-3.65 14.31 -5.3 16.62 -7 19 C-7.66 18.67 -8.32 18.34 -9 18 C-10.07 7.53 -10.07 7.53 -7.51 3.87 C-3 0 -3 0 0 0 Z " fill="#2E406D" transform="translate(236,171)"/>
<path d="M0 0 C0.33 0 0.66 0 1 0 C1.06 2.96 1.09 5.92 1.12 8.88 C1.14 9.72 1.16 10.56 1.18 11.43 C1.18 12.23 1.19 13.04 1.2 13.87 C1.21 14.61 1.22 15.35 1.23 16.12 C1 18 1 18 -1 20 C-1.62 22.62 -1.62 22.62 -2 25 C-1.34 25.33 -0.68 25.66 0 26 C-0.47 26.33 -0.95 26.66 -1.44 27 C-3.8 30.02 -3.74 33.26 -4 37 C-4.66 37 -5.32 37 -6 37 C-6 40.3 -6 43.6 -6 47 C-6.5 47.16 -6.5 47.16 -9 48 C-8.46 40.77 -7.24 33.87 -5.62 26.81 C-5.17 24.8 -4.73 22.78 -4.28 20.77 C-4.06 19.79 -3.84 18.81 -3.62 17.81 C-2.76 13.9 -1.96 9.99 -1.19 6.06 C-1.13 5.75 -1.13 5.75 -0.81 4.17 C-0.54 2.78 -0.27 1.39 0 0 Z " fill="#476494" transform="translate(127,126)"/>
<path d="M0 0 C0.33 0 0.66 0 1 0 C1.33 6.6 1.66 13.2 2 20 C-2 22 -2 22 -4 22 C-4.66 22.33 -5.32 22.66 -6 23 C-7.08 18.34 -6.85 15.43 -5.25 10.94 C-4.9 9.94 -4.56 8.93 -4.2 7.9 C-3.03 5.06 -1.71 2.56 0 0 Z " fill="#6170A0" transform="translate(177,200)"/>
<path d="M0 0 C6.27 -0.14 12.34 0.24 18.56 1 C18.97 1.05 18.97 1.05 21.04 1.29 C23.03 1.52 25.01 1.76 27 2 C27 2.66 27 3.32 27 4 C27.66 4.33 28.32 4.66 29 5 C28.29 5.06 27.58 5.12 26.85 5.18 C25.93 5.27 25.01 5.35 24.06 5.44 C23.15 5.52 22.23 5.6 21.29 5.68 C19 6 19 6 18 7 C16.02 7.13 14.04 7.18 12.06 7.19 C10.98 7.2 9.9 7.22 8.79 7.23 C6 7 6 7 4 5 C4 4.01 4 3.02 4 2 C2.68 1.34 1.36 0.68 0 0 Z " fill="#4161A5" transform="translate(156,119)"/>
<path d="M0 0 C0 0.66 0 1.32 0 2 C3.3 1.67 6.6 1.34 10 1 C7.88 3.12 6.83 3.54 4.04 4.4 C3.24 4.65 2.44 4.9 1.63 5.16 C1.2 5.29 1.2 5.29 -0.94 5.94 C-1.37 6.07 -1.37 6.07 -3.54 6.74 C-6.02 7.5 -8.51 8.25 -11 9 C-11.63 9.19 -12.26 9.39 -12.91 9.59 C-14.41 10.05 -15.93 10.49 -17.44 10.94 C-17.84 11.06 -17.84 11.06 -19.87 11.65 C-22.24 12.04 -23.71 11.64 -26 11 C-22.62 9.43 -19.24 7.86 -15.86 6.3 C-14.7 5.77 -13.55 5.23 -12.4 4.7 C-10.75 3.93 -9.1 3.17 -7.45 2.41 C-6.45 1.95 -5.46 1.48 -4.43 1.01 C-2 0 -2 0 0 0 Z " fill="#636E97" transform="translate(135,99)"/>
<path d="M0 0 C1.32 0.33 2.64 0.66 4 1 C4.33 2.32 4.66 3.64 5 5 C6.32 4.67 7.64 4.34 9 4 C13.74 10.82 13.74 10.82 14.62 14.81 C14 17 14 17 11.69 18.81 C9 20 9 20 6 20 C6 15.71 6 11.42 6 7 C5.01 6.67 4.02 6.34 3 6 C2.44 4.06 2.44 4.06 2 2 C1.34 1.34 0.68 0.68 0 0 Z " fill="#6939B6" transform="translate(205,129)"/>
<path d="M0 0 C0.99 0 1.98 0 3 0 C3.33 0.99 3.66 1.98 4 3 C3.34 3 2.68 3 2 3 C1.34 13.56 0.68 24.12 0 35 C-0.33 35 -0.66 35 -1 35 C-1.33 33.02 -1.66 31.04 -2 29 C-2.33 29 -2.66 29 -3 29 C-3 20.42 -3 11.84 -3 3 C-2.34 3.66 -1.68 4.32 -1 5 C-0.67 3.35 -0.34 1.7 0 0 Z " fill="#395685" transform="translate(232,221)"/>
<path d="M0 0 C0 0.66 0 1.32 0 2 C-7.51 4.89 -13.92 6.64 -22 6 C-22 5.01 -22 4.02 -22 3 C-14.51 -2.77 -8.77 -2.13 0 0 Z " fill="#6A75A1" transform="translate(157,95)"/>
<path d="M0 0 C0.66 0.33 1.32 0.66 2 1 C2.06 4.25 2.09 7.5 2.12 10.75 C2.14 11.67 2.16 12.59 2.18 13.54 C2.18 14.43 2.19 15.32 2.2 16.23 C2.21 17.05 2.22 17.87 2.23 18.71 C1.98 21.22 1.26 22.83 0 25 C-0.33 24.01 -0.66 23.02 -1 22 C-1.29 22.5 -1.58 22.99 -1.88 23.5 C-2.25 24 -2.62 24.49 -3 25 C-3.66 25 -4.32 25 -5 25 C-4.55 21.77 -4.09 18.54 -3.62 15.31 C-3.5 14.4 -3.37 13.49 -3.24 12.55 C-2.6 8.11 -1.97 4.08 0 0 Z " fill="#465178" transform="translate(286,230)"/>
<path d="M0 0 C0.35 0.03 0.35 0.03 2.1 0.17 C3.8 0.31 5.49 0.47 7.19 0.62 C6.53 0.95 5.87 1.29 5.19 1.62 C5.19 2.29 5.19 2.94 5.19 3.62 C1.72 3.95 1.72 3.95 -15.81 5.62 C-15.81 6.29 -15.81 6.94 -15.81 7.62 C-20.2 7.11 -23.15 6.1 -26.81 3.62 C-24.81 2.62 -24.81 2.62 -23.19 3.06 C-19.74 3.88 -16.34 3.7 -12.81 3.62 C-12.81 2.96 -12.81 2.31 -12.81 1.62 C-8.33 -0.65 -4.84 -0.46 0 0 Z " fill="#335081" transform="translate(222.8125,274.375)"/>
<path d="M0 0 C0.66 0 1.32 0 2 0 C2 3.3 2 6.6 2 10 C2.99 10 3.98 10 5 10 C5 10.66 5 11.32 5 12 C5.66 12 6.32 12 7 12 C5.52 15.67 3.52 17.41 0.38 19.75 C-0.44 20.36 -1.26 20.98 -2.1 21.61 C-2.73 22.07 -3.35 22.53 -4 23 C-5 21 -5 21 -4.51 19.26 C-4.24 18.55 -3.97 17.85 -3.69 17.12 C-1.7 11.54 -0.84 5.86 0 0 Z " fill="#343D5E" transform="translate(248,300)"/>
<path d="M0 0 C0.66 0 1.32 0 2 0 C2.1 5.37 2.1 5.37 2 7 C0.36 8.64 -1.58 8.17 -3.84 8.21 C-4.33 8.23 -4.33 8.23 -6.81 8.3 C-8.89 8.35 -10.97 8.39 -13.05 8.43 C-14.03 8.46 -15.02 8.49 -16.03 8.52 C-16.93 8.54 -17.84 8.56 -18.77 8.58 C-19.51 8.72 -20.24 8.86 -21 9 C-21.66 9.99 -22.32 10.98 -23 12 C-22.67 9.36 -22.34 6.72 -22 4 C-20.74 4.19 -19.48 4.37 -18.19 4.56 C-12.87 5.14 -7.19 5.46 -2 4 C-0.68 1.95 -0.68 1.95 0 0 Z " fill="#5A2F97" transform="translate(160,217)"/>
<path d="M0 0 C0 1.65 0 3.3 0 5 C-0.99 4.67 -1.98 4.34 -3 4 C-4.34 3.92 -5.67 3.89 -7.01 3.9 C-7.77 3.91 -8.53 3.91 -9.31 3.91 C-9.7 3.92 -9.7 3.92 -11.69 3.94 C-12.48 3.94 -13.28 3.95 -14.1 3.95 C-16.07 3.96 -18.03 3.98 -20 4 C-20.33 3.34 -20.66 2.68 -21 2 C-14.37 -1.54 -7.23 -2.41 0 0 Z " fill="#4B6590" transform="translate(301,176)"/>
<path d="M0 0 C1.99 2.65 3.01 5.48 4.19 8.56 C8.01 17.85 13.61 25.21 21 32 C17.39 32 16.77 31.29 14.06 29.04 C13.31 28.42 12.56 27.81 11.79 27.17 C11.01 26.52 10.24 25.86 9.44 25.19 C8.66 24.54 7.88 23.9 7.07 23.24 C0.76 17.99 0.76 17.99 -1 15 C1.67 16.33 4.33 17.67 7 19 C6.75 18.58 6.49 18.15 6.23 17.71 C-0.56 6.15 -0.56 6.15 0 0 Z " fill="#5D358A" transform="translate(129,294)"/>
<path d="M0 0 C0.66 0.33 1.32 0.66 2 1 C1.67 2.32 1.34 3.64 1 5 C1.66 5 2.32 5 3 5 C2.34 10.61 1.68 16.22 1 22 C1.99 22.33 2.98 22.66 4 23 C3.01 23 2.02 23 1 23 C1 24.65 1 26.3 1 28 C0.34 28.33 -0.32 28.66 -1 29 C-1.33 25.7 -1.66 22.4 -2 19 C-2.66 19.33 -3.32 19.66 -4 20 C-3.89 18.52 -3.76 17.04 -3.62 15.56 C-3.56 14.74 -3.49 13.92 -3.41 13.07 C-3.28 12.38 -3.14 11.7 -3 11 C-2.34 10.67 -1.68 10.34 -1 10 C-0.59 7.71 -0.59 7.71 -0.38 4.94 C-0.3 4.02 -0.23 3.1 -0.15 2.15 C-0.1 1.44 -0.05 0.73 0 0 Z " fill="#3D539A" transform="translate(121,163)"/>
<path d="M0 0 C0.33 0 0.66 0 1 0 C1.91 4.42 2.06 8.54 1.94 13.05 C2 15 2 15 3 17 C2.34 17 1.68 17 1 17 C1.33 21.29 1.66 25.58 2 30 C0 28 0 28 -0.12 25.38 C-0.08 24.59 -0.04 23.81 0 23 C-0.66 23 -1.32 23 -2 23 C-2.06 19.92 -2.09 16.83 -2.12 13.75 C-2.14 12.88 -2.16 12 -2.18 11.11 C-2.18 10.26 -2.19 9.42 -2.2 8.55 C-2.21 7.77 -2.22 7 -2.23 6.2 C-1.97 3.74 -1.22 2.13 0 0 Z " fill="#6529B1" transform="translate(105,253)"/>
<path d="M0 0 C3.79 3.79 4.11 9.92 4.25 15.12 C4.16 19 3.22 22.33 2 26 C1.34 26 0.68 26 0 26 C-0.2 22.23 -0.38 18.46 -0.56 14.69 C-0.62 13.62 -0.67 12.54 -0.73 11.44 C-0.76 10.93 -0.76 10.93 -0.88 8.32 C-0.93 7.38 -0.97 6.43 -1.02 5.45 C-1 3 -1 3 0 0 Z " fill="#6126AE" transform="translate(130,235)"/>
<path d="M0 0 C4.04 1.78 7.46 4.4 11 7 C10.67 7.66 10.34 8.32 10 9 C9.42 8.79 8.85 8.59 8.25 8.38 C5.48 7.91 4.35 8.57 2 10 C2.33 10.99 2.66 11.98 3 13 C2.18 12.67 2.18 12.67 -2 11 C-1.86 9.73 -1.71 8.46 -1.56 7.19 C-1.48 6.48 -1.4 5.77 -1.32 5.04 C-1 3 -1 3 0 0 Z " fill="#546C9E" transform="translate(323,121)"/>
<path d="M0 0 C1.13 1.69 1.13 1.69 2 4 C0.19 10 -3.29 14.96 -8 19 C-8.66 17.68 -9.32 16.36 -10 15 C-9.34 15 -8.68 15 -8 15 C-7.88 14.22 -7.75 13.43 -7.62 12.62 C-7 10 -7 10 -5 8 C-4.94 7.69 -4.94 7.69 -4.62 6.12 C-3.79 3.28 -2.16 1.95 0 0 Z " fill="#7987B5" transform="translate(257,119)"/>
<path d="M0 0 C1.87 0.17 1.87 0.17 4 1 C5.16 3.33 5.16 3.33 6.06 6.25 C7.31 10.21 8.75 13.5 11 17 C10.4 16.69 9.8 16.38 9.19 16.06 C7 15 7 15 4 14 C1.38 11.88 0.58 10.29 0 7 C-0.21 6.13 -0.41 5.27 -0.62 4.38 C-1 2 -1 2 0 0 Z " fill="#7A85A8" transform="translate(305,95)"/>
<path d="M0 0 C0.33 0 0.66 0 1 0 C1.33 5.28 1.66 10.56 2 16 C0.68 16 -0.64 16 -2 16 C-2.33 13.69 -2.66 11.38 -3 9 C-3.66 12.63 -4.32 16.26 -5 20 C-5.33 20 -5.66 20 -6 20 C-6.72 12.3 -5.42 7.36 -1 1 C-0.67 0.67 -0.34 0.34 0 0 Z " fill="#375484" transform="translate(234,182)"/>
<path d="M0 0 C4.2 3.72 7 8.32 10 13 C9.01 13 8.02 13 7 13 C6.67 13.66 6.34 14.32 6 15 C4.54 13.42 3.08 11.84 1.62 10.25 C1.42 10.03 1.42 10.03 0.38 8.91 C-1.89 6.42 -3.68 4.11 -5 1 C-4.34 1.33 -4.34 1.33 -1 3 C-0.67 2.01 -0.34 1.02 0 0 Z " fill="#F1EEF9" transform="translate(145,314)"/>
<path d="M0 0 C0.33 0 0.66 0 1 0 C1.18 14.78 1.18 14.78 0 21 C-0.66 20.34 -1.32 19.68 -2 19 C-2.99 19.33 -3.98 19.66 -5 20 C-4.38 14.33 -3.72 8.66 -3 3 C-2.34 3.33 -1.68 3.66 -1 4 C-0.67 2.68 -0.34 1.36 0 0 Z " fill="#7C88B4" transform="translate(266,83)"/>
<path d="M0 0 C0.66 1.32 1.32 2.64 2 4 C2.66 4 3.32 4 4 4 C3.34 7.63 2.68 11.26 2 15 C-7.11 12.05 -7.11 12.05 -11 10 C-7.7 9.11 -4.38 8.54 -1 8 C-0.67 5.36 -0.34 2.72 0 0 Z " fill="#747CA4" transform="translate(218,77)"/>
<path d="M0 0 C0.66 0.66 1.32 1.32 2 2 C1.79 4.75 1.79 4.75 1.19 8 C1.09 8.54 1.09 8.54 0.61 11.25 C0 14 0 14 -1 16 C2.3 16 5.6 16 9 16 C9 16.33 9 16.66 9 17 C6.85 17.16 6.85 17.16 -4 18 C-4.33 16.02 -4.66 14.04 -5 12 C-4.34 12 -3.68 12 -3 12 C-2.67 9.36 -2.34 6.72 -2 4 C-2.66 3.67 -3.32 3.34 -4 3 C-2.68 2.01 -1.36 1.02 0 0 Z " fill="#5D54A2" transform="translate(145,183)"/>
<path d="M0 0 C-0.33 1.98 -0.66 3.96 -1 6 C-3.64 6 -6.28 6 -9 6 C-9 6.66 -9 7.32 -9 8 C-10.65 8 -12.3 8 -14 8 C-14 7.34 -14 6.68 -14 6 C-15.32 5.67 -16.64 5.34 -18 5 C-15.38 4.16 -12.75 3.33 -10.12 2.5 C-9.75 2.38 -9.75 2.38 -7.86 1.78 C-7.15 1.55 -6.43 1.33 -5.7 1.09 C-5.04 0.88 -4.38 0.67 -3.7 0.46 C-2 0 -2 0 0 0 Z " fill="#8D96B7" transform="translate(139,78)"/>
<path d="M0 0 C0.33 2.31 0.66 4.62 1 7 C1.99 7 2.98 7 4 7 C3.67 7.99 3.34 8.98 3 10 C2.48 9.67 1.96 9.35 1.43 9.01 C-0.02 8.11 -1.46 7.21 -2.91 6.31 C-4.51 5.31 -6.1 4.28 -7.69 3.25 C-10.14 1.92 -12.25 1.39 -15 1 C-15 0.67 -15 0.34 -15 0 C-9.96 -1.51 -5.12 -0.65 0 0 Z " fill="#5050A0" transform="translate(185,142)"/>
<path d="M0 0 C0.33 0 0.66 0 1 0 C0.68 7.45 -0.75 14.24 -4 21 C-4.66 21.33 -5.32 21.66 -6 22 C-6.05 20.42 -6.09 18.83 -6.12 17.25 C-6.15 16.37 -6.17 15.49 -6.2 14.58 C-5.99 11.89 -5.37 10.3 -4 8 C-3.34 8 -2.68 8 -2 8 C-1.86 6.87 -1.71 5.73 -1.56 4.56 C-1.12 1.12 -1.12 1.12 0 0 Z " fill="#818FBC" transform="translate(264,101)"/>
<path d="M0 0 C0 0.66 0 1.32 0 2 C0.53 1.9 1.07 1.81 1.62 1.71 C7.81 0.79 12.96 1.47 19 3 C19 3.33 19 3.66 19 4 C11.08 4.33 3.16 4.66 -5 5 C-5.33 3.68 -5.66 2.36 -6 1 C-3 0 -3 0 0 0 Z " fill="#475591" transform="translate(159,141)"/>
<path d="M0 0 C0.33 0 0.66 0 1 0 C1 5.94 1 11.88 1 18 C0.34 18 -0.32 18 -1 18 C-3.41 15.47 -3.3 12.93 -3.31 9.56 C-3.33 8.62 -3.35 7.67 -3.36 6.69 C-2.95 3.62 -2.1 2.25 0 0 Z " fill="#38537F" transform="translate(273,185)"/>
<path d="M0 0 C1.65 0.99 3.3 1.98 5 3 C4.51 3.24 4.03 3.48 3.53 3.72 C2 5 2 5 1.6 6.99 C1.59 7.8 1.58 8.61 1.57 9.45 C1.55 10.37 1.53 11.29 1.51 12.24 C1.5 13.24 1.49 14.23 1.49 15.26 C1.47 16.28 1.45 17.29 1.43 18.34 C1.38 21.6 1.35 24.86 1.31 28.12 C1.28 30.33 1.24 32.54 1.21 34.75 C1.12 40.16 1.06 45.58 1 51 C0.67 51 0.34 51 0 51 C0 34.17 0 17.34 0 0 Z " fill="#F8FEFF" transform="translate(310,138)"/>
<path d="M0 0 C0.33 0.66 0.66 1.32 1 2 C1.66 2 2.32 2 3 2 C3 2.66 3 3.32 3 4 C3.66 4 4.32 4 5 4 C4.01 6.97 3.02 9.94 2 13 C0.68 13 -0.64 13 -2 13 C-2 10.03 -2 7.06 -2 4 C-1.34 4 -0.68 4 0 4 C0 2.68 0 1.36 0 0 Z " fill="#47618F" transform="translate(300,241)"/>
<path d="M0 0 C0.66 0.33 1.32 0.66 2 1 C2.05 2.77 2.09 4.54 2.12 6.31 C2.15 7.3 2.17 8.28 2.2 9.3 C2 11.96 1.71 13.02 0 15 C-1.32 14.67 -2.64 14.34 -4 14 C-3.72 11.85 -3.43 9.71 -3.12 7.56 C-3.05 6.95 -2.97 6.34 -2.89 5.71 C-2.66 4.13 -2.34 2.56 -2 1 C-1.34 0.67 -0.68 0.34 0 0 Z " fill="#5160A5" transform="translate(118,181)"/>
<path d="M0 0 C2.31 0.66 4.62 1.32 7 2 C5.68 6.26 4.07 10.05 2 14 C1.01 14 0.02 14 -1 14 C-2.46 11.35 -3 10.11 -3 7 C-2.01 6.67 -1.02 6.34 0 6 C0.66 6.33 1.32 6.66 2 7 C2.33 6.01 2.66 5.02 3 4 C3.33 4.33 3.66 4.66 4 5 C4.33 4.34 4.66 3.68 5 3 C4.01 2.83 4.01 2.83 -1 2 C-0.67 1.34 -0.34 0.68 0 0 Z " fill="#7F86AA" transform="translate(221,67)"/>
<path d="M0 0 C2.1 2.1 2.89 3.68 4.06 6.38 C4.4 7.15 4.75 7.92 5.1 8.71 C5.92 10.8 6.52 12.81 7 15 C6.67 15.17 6.67 15.17 5 16 C3.68 14.26 2.37 12.51 1.06 10.75 C0.69 10.26 0.32 9.77 -0.07 9.26 C-2.06 6.57 -3.5 4.34 -4 1 C-3.34 1 -2.68 1 -2 1 C-1.67 1.66 -1.34 2.32 -1 3 C-0.67 2.01 -0.34 1.02 0 0 Z " fill="#556C9E" transform="translate(178,253)"/>
<path d="M0 0 C2.55 1.89 3.29 3.52 3.81 6.56 C3.87 7.7 3.94 8.83 4 10 C3.34 10.66 2.68 11.32 2 12 C1.67 11.34 1.34 10.68 1 10 C0.71 11.11 0.42 12.23 0.12 13.38 C-0.58 16.11 -0.93 16.93 -3 19 C-3.33 18.01 -3.66 17.02 -4 16 C-3.34 16 -2.68 16 -2 16 C-2.02 15.43 -2.05 14.86 -2.07 14.28 C-2.19 9.07 -1.68 4.93 0 0 Z " fill="#385583" transform="translate(347,143)"/>
<path d="M0 0 C0.99 0.33 1.98 0.66 3 1 C3 1.66 3 2.32 3 3 C1.39 4.33 1.39 4.33 -0.75 5.81 C-4.12 8.24 -6.47 10.69 -9 14 C-10.66 15.35 -12.32 16.68 -14 18 C-15.15 20.3 -15.31 22.08 -15.56 24.62 C-15.65 25.44 -15.73 26.26 -15.82 27.1 C-15.88 27.73 -15.94 28.35 -16 29 C-16.33 29 -16.66 29 -17 29 C-18.22 18.68 -18.22 18.68 -15.46 14.89 C-13.38 13.14 -11.22 11.58 -9 10 C-7.68 8.78 -6.39 7.53 -5.12 6.25 C-4.57 5.7 -4.02 5.15 -3.45 4.58 C-2.11 3.12 -1.04 1.67 0 0 Z " fill="#E8EEF5" transform="translate(253,152)"/>
<path d="M0 0 C3.96 0 7.92 0 12 0 C12.24 8.95 11.81 17.2 10 26 C9.34 24.68 8.68 23.36 8 22 C8.33 21.67 8.66 21.34 9 21 C9.1 19.67 9.13 18.33 9.13 17 C9.13 16.2 9.14 15.39 9.14 14.56 C9.13 13.72 9.13 12.87 9.12 12 C9.13 11.15 9.13 10.31 9.14 9.44 C9.14 9.04 9.14 9.04 9.13 7 C9.13 6.26 9.13 5.51 9.13 4.75 C9 3 9 3 8 2 C6.65 1.77 5.3 1.59 3.94 1.44 C3.57 1.4 3.57 1.4 1.71 1.18 C1.15 1.12 0.58 1.06 0 1 C0 0.67 0 0.34 0 0 Z " fill="#C7D3E0" transform="translate(219,285)"/>
<path d="M0 0 C0.66 0 1.32 0 2 0 C2.18 0.64 2.36 1.28 2.55 1.93 C2.68 2.35 2.68 2.35 3.31 4.44 C3.56 5.26 3.8 6.08 4.05 6.93 C4.36 7.62 4.68 8.3 5 9 C5.99 9.33 6.98 9.66 8 10 C6.61 12.78 4.84 12.98 2 14 C1.27 12.43 0.57 10.84 -0.12 9.25 C-0.52 8.37 -0.91 7.49 -1.32 6.58 C-2 4 -2 4 -1.12 1.67 C-0.75 1.12 -0.38 0.57 0 0 Z " fill="#6130A9" transform="translate(191,148)"/>
<path d="M0 0 C0.33 0.66 0.66 1.32 1 2 C1.66 2 2.32 2 3 2 C3.33 6.95 3.66 11.9 4 17 C0 15 0 15 -0.75 12.88 C-1.59 3.19 -1.59 3.19 0 0 Z " fill="#36558A" transform="translate(209,235)"/>
<path d="M0 0 C0.33 0 0.66 0 1 0 C1.19 2.6 1.38 5.21 1.56 7.81 C1.62 8.55 1.67 9.29 1.73 10.05 C1.78 10.76 1.83 11.47 1.88 12.21 C1.93 12.86 1.97 13.52 2.02 14.19 C2 16 2 16 1 19 C0.01 18.67 -0.98 18.34 -2 18 C-2.05 15.75 -2.09 13.5 -2.12 11.25 C-2.14 10.62 -2.16 9.98 -2.18 9.33 C-2.21 5.69 -1.98 3.09 0 0 Z " fill="#576DA2" transform="translate(175,235)"/>
<path d="M0 0 C0.66 0.33 1.32 0.66 2 1 C1.34 8.59 0.68 16.18 0 24 C-0.33 24 -0.66 24 -1 24 C-1.06 23.1 -1.12 22.19 -1.18 21.26 C-1.27 20.07 -1.35 18.88 -1.44 17.69 C-1.48 17.09 -1.52 16.5 -1.56 15.88 C-1.76 13.05 -2.1 10.71 -3 8 C-2.44 5.96 -2.44 5.96 -1.56 3.81 C-1.28 3.1 -0.99 2.38 -0.69 1.64 C-0.46 1.1 -0.24 0.56 0 0 Z " fill="#3F4C77" transform="translate(291,217)"/>
<path d="M0 0 C1.32 1.32 2.64 2.64 4 4 C3.67 4.17 3.67 4.17 2 5 C2.5 5.72 2.99 6.44 3.5 7.19 C5.08 10.15 5.28 11.71 5 15 C4.01 15 3.02 15 2 15 C1.67 15.66 1.34 16.32 1 17 C0.1 13.16 -0.11 9.62 -0.06 5.69 C-0.05 4.62 -0.04 3.55 -0.04 2.45 C-0.02 1.64 -0.01 0.83 0 0 Z " fill="#49506C" transform="translate(137,280)"/>
<path d="M0 0 C2.72 0.91 5.35 1.92 8 3 C8 2.01 8 1.02 8 0 C8.66 0 9.32 0 10 0 C9.25 5.75 9.25 5.75 7 8 C6.34 7.34 5.68 6.68 5 6 C3.02 6.66 1.04 7.32 -1 8 C-0.67 5.36 -0.34 2.72 0 0 Z " fill="#415C8E" transform="translate(287,259)"/>
<path d="M0 0 C0.66 0 1.32 0 2 0 C2.04 2 2.04 4 2 6 C1.67 6.33 1.34 6.66 1 7 C0.78 8.26 0.61 9.54 0.46 10.82 C0.38 11.58 0.29 12.34 0.2 13.13 C0.11 13.93 0.03 14.74 -0.06 15.56 C-0.15 16.37 -0.24 17.18 -0.34 18.01 C-0.56 20 -0.78 22 -1 24 C-1.66 23.67 -2.32 23.34 -3 23 C-3.57 15.01 -1.84 7.71 0 0 Z " fill="#6B44A1" transform="translate(103,250)"/>
<path d="M0 0 C1.35 4.05 0.62 7.09 -1 11 C-3.06 12.19 -3.06 12.19 -5 13 C-5.37 14.66 -5.71 16.33 -6 18 C-7.56 19.31 -7.56 19.31 -9 20 C-8.4 15.13 -6.28 11.41 -3.94 7.19 C-3.56 6.49 -3.18 5.8 -2.79 5.09 C-1.87 3.39 -0.94 1.69 0 0 Z " fill="#7F86AA" transform="translate(258,110)"/>
<path d="M0 0 C0.99 0 1.98 0 3 0 C3 0.66 3 1.32 3 2 C1.73 2.65 0.46 3.29 -0.81 3.94 C-1.52 4.3 -2.23 4.66 -2.96 5.03 C-6.53 6.73 -9.28 7.11 -13.19 7.06 C-14.09 7.05 -14.99 7.04 -15.92 7.04 C-16.61 7.02 -17.29 7.01 -18 7 C-18.33 6.34 -18.66 5.68 -19 5 C-14.05 4.67 -9.1 4.34 -4 4 C-4 3.34 -4 2.68 -4 2 C-2.68 2 -1.36 2 0 2 C0 1.34 0 0.68 0 0 Z " fill="#4E6487" transform="translate(299,201)"/>
<path d="M0 0 C0.33 0.17 0.33 0.17 2 1 C2.2 3.9 2.38 6.79 2.56 9.69 C2.62 10.5 2.67 11.32 2.73 12.16 C2.98 16.3 3.11 19.96 2 24 C1.34 24 0.68 24 0 24 C0 16.08 0 8.16 0 0 Z " fill="#335793" transform="translate(128,126)"/>
<path d="M0 0 C-0.33 0.66 -0.66 1.32 -1 2 C-0.34 2.33 0.32 2.66 1 3 C1 3.66 1 4.32 1 5 C-2.96 5 -6.92 5 -11 5 C-10 2 -10 2 -8.48 1.02 C-7.87 0.76 -7.25 0.51 -6.62 0.25 C-6.02 -0.01 -5.41 -0.28 -4.79 -0.55 C-3 -1 -3 -1 0 0 Z " fill="#8992B4" transform="translate(177,65)"/>
<path d="M0 0 C0.66 0.33 1.32 0.66 2 1 C2 6.28 2 11.56 2 17 C1.01 16.67 0.02 16.34 -1 16 C-1.73 14.37 -1.73 14.37 -2.19 12.44 C-2.35 11.8 -2.5 11.16 -2.67 10.5 C-2.78 10 -2.89 9.51 -3 9 C-2.01 9.33 -1.02 9.66 0 10 C-0.19 8.91 -0.37 7.81 -0.56 6.69 C-1.05 3.83 -0.97 2.9 0 0 Z " fill="#32406F" transform="translate(144,294)"/>
<path d="M0 0 C2.1 1.09 2.88 1.69 3.73 3.95 C3.88 4.66 4.03 5.38 4.19 6.12 C4.35 6.85 4.5 7.57 4.67 8.32 C4.72 8.6 4.72 8.6 5 10 C6.65 10.33 8.3 10.66 10 11 C9.02 12.17 8.04 13.34 7.06 14.5 C6.52 15.15 5.97 15.8 5.41 16.47 C4.94 16.97 4.48 17.48 4 18 C3.67 18 3.34 18 3 18 C2.95 17.29 2.9 16.57 2.85 15.84 C2.42 10.29 1.76 5.28 0 0 Z " fill="#5D3D8E" transform="translate(188,151)"/>
<path d="M0 0 C0.33 1.65 0.66 3.3 1 5 C-0.79 5.08 -2.58 5.14 -4.38 5.19 C-4.87 5.2 -4.87 5.2 -7.4 5.29 C-10 5 -10 5 -11.35 3.49 C-11.46 3.24 -11.46 3.24 -12 2 C-10.38 1.66 -8.75 1.33 -7.12 1 C-6.22 0.81 -5.32 0.63 -4.38 0.44 C-2 0 -2 0 0 0 Z " fill="#8A92B5" transform="translate(78,95)"/>
<path d="M0 0 C0.33 0 0.66 0 1 0 C1.11 7.07 1.04 14.12 0.69 21.19 C0.67 21.83 0.64 22.48 0.62 23.15 C0.51 24.98 0.51 24.98 0 28 C-0.5 28.33 -0.5 28.33 -3 30 C-2.01 20.1 -1.02 10.2 0 0 Z " fill="#455F89" transform="translate(238,235)"/>
<path d="M0 0 C2.12 2.75 3.04 5.73 4.12 9 C4.48 10.05 4.83 11.1 5.2 12.19 C6 15 6 15 6 18 C2.53 16.84 2.32 16.37 0.75 13.25 C-0.91 9.73 -1.26 7.78 0 4 C0.04 2.67 0.05 1.33 0 0 Z " fill="#5D678E" transform="translate(93,201)"/>
<path d="M0 0 C1.62 -0.05 3.25 -0.09 4.88 -0.12 C5.78 -0.15 6.68 -0.17 7.62 -0.2 C10 0 10 0 12 2 C11.34 2 10.68 2 10 2 C10 2.66 10 3.32 10 4 C6.37 4 2.74 4 -1 4 C-0.67 2.68 -0.34 1.36 0 0 Z " fill="#385585" transform="translate(238,202)"/>
<path d="M0 0 C0.99 0 1.98 0 3 0 C3 0.99 3 1.98 3 3 C3.99 3 4.98 3 6 3 C4.46 7.62 1.13 8.57 -3 11 C-2.01 7.37 -1.02 3.74 0 0 Z " fill="#3E4662" transform="translate(246,312)"/>
<path d="M0 0 C4.86 5.56 6.45 11.78 6 19 C5.01 18.67 4.02 18.34 3 18 C2.5 15.56 2 13.13 1.5 10.69 C1.36 10 1.21 9.31 1.07 8.6 C0.93 7.93 0.8 7.26 0.66 6.57 C0.53 5.96 0.4 5.35 0.28 4.72 C0 3 0 3 0 0 Z " fill="#40547C" transform="translate(264,70)"/>
<path d="M0 0 C0.33 0 0.66 0 1 0 C1.03 0.66 1.05 1.31 1.08 1.99 C1.19 4.95 1.31 7.91 1.44 10.88 C1.48 11.91 1.52 12.94 1.56 14 C1.6 14.99 1.64 15.98 1.68 16.99 C1.72 17.9 1.76 18.81 1.79 19.75 C2 22 2 22 3 24 C3.99 24 4.98 24 6 24 C4.02 25.65 2.04 27.3 0 29 C0 19.43 0 9.86 0 0 Z " fill="#7A7D99" transform="translate(225,112)"/>
<path d="M0 0 C5.46 -0.11 10.62 0.08 16 1 C15.34 1.66 14.68 2.32 14 3 C13.01 3 12.02 3 11 3 C11 3.66 11 4.32 11 5 C8.69 5 6.38 5 4 5 C4 4.01 4 3.02 4 2 C2.68 1.34 1.36 0.68 0 0 Z " fill="#4D6CA2" transform="translate(156,119)"/>
<path d="M0 0 C-0.56 1.44 -0.56 1.44 -2 3 C-3.63 3.23 -5.27 3.46 -6.91 3.62 C-10.86 4.34 -14.41 6.25 -18 8 C-18 7.34 -18 6.68 -18 6 C-16.33 5 -14.67 4 -13 3 C-13 2.34 -13 1.68 -13 1 C-8.13 -1.02 -5.17 -1.03 0 0 Z " fill="#757DA2" transform="translate(200,79)"/>
<path d="M0 0 C0.33 0 0.66 0 1 0 C1.33 7.26 1.66 14.52 2 22 C-1.17 18.83 -1.61 18.24 -2 14 C-1.83 11.54 -1.47 9.12 -1.06 6.69 C-0.96 6.04 -0.86 5.4 -0.76 4.73 C-0.51 3.15 -0.26 1.58 0 0 Z " fill="#343D62" transform="translate(90,239)"/>
<path d="M0 0 C-0.66 1.65 -1.32 3.3 -2 5 C-2.99 5 -3.98 5 -5 5 C-5 5.99 -5 6.98 -5 8 C-5.99 8 -6.98 8 -8 8 C-8.66 6.02 -9.32 4.04 -10 2 C-8.71 1.66 -7.42 1.33 -6.12 1 C-5.41 0.81 -4.69 0.63 -3.95 0.44 C-2 0 -2 0 0 0 Z " fill="#6541A8" transform="translate(170,196)"/>
<path d="M0 0 C0.66 0 1.32 0 2 0 C2 5.28 2 10.56 2 16 C1.67 16 1.34 16 1 16 C0.67 12.04 0.34 8.08 0 4 C-1.32 4.99 -2.64 5.98 -4 7 C-4.66 6.67 -5.32 6.34 -6 6 C-4.71 4.62 -3.37 3.29 -2 2 C-1.34 2 -0.68 2 0 2 C0 1.34 0 0.68 0 0 Z M-8 7 C-7.34 7.33 -6.68 7.66 -6 8 C-7.32 9.32 -8.64 10.64 -10 12 C-10.66 11.67 -11.32 11.34 -12 11 C-10.68 9.68 -9.36 8.36 -8 7 Z " fill="#DCE3EE" transform="translate(225,178)"/>
<path d="M0 0 C2.3 3.01 2.17 5.25 2 9 C1.34 9 0.68 9 0 9 C0 12.3 0 15.6 0 19 C-0.99 19.33 -1.98 19.66 -3 20 C-2.45 13.21 -1.46 6.65 0 0 Z " fill="#536A97" transform="translate(121,154)"/>
<path d="M0 0 C-0.66 1.32 -1.32 2.64 -2 4 C-2.66 3.67 -3.32 3.34 -4 3 C-5.67 2.96 -7.33 2.96 -9 3 C-9 3.66 -9 4.32 -9 5 C-9.99 5 -10.98 5 -12 5 C-12.33 3.68 -12.66 2.36 -13 1 C-8.15 -0.65 -5.11 -1.25 0 0 Z " fill="#476599" transform="translate(141,124)"/>
<path d="M0 0 C1.99 2.98 2.31 4.03 2.62 7.44 C2.7 8.2 2.77 8.96 2.85 9.75 C3.23 15.53 3.23 15.53 2.12 17.75 C1.75 18.16 1.38 18.57 1 19 C0.34 19 -0.32 19 -1 19 C-0.67 12.73 -0.34 6.46 0 0 Z " fill="#F0F6FB" transform="translate(275,232)"/>
<path d="M0 0 C2.02 2.7 3.13 5.63 4.38 8.75 C6.28 13.42 8.36 17.71 11 22 C10.01 22 9.02 22 8 22 C7.04 20.11 6.08 18.21 5.12 16.31 C4.86 15.78 4.59 15.25 4.31 14.71 C-0.32 5.51 -0.32 5.51 0 0 Z " fill="#613595" transform="translate(129,294)"/>
<path d="M0 0 C0.55 0.01 0.55 0.01 3.34 0.04 C3.89 0.04 3.89 0.04 6.69 0.06 C7.54 0.07 8.4 0.09 9.28 0.1 C6.27 3.1 3.45 2.69 -0.72 3.1 C-1.71 6.07 -2.7 9.04 -3.72 12.1 C-4.84 7.63 -4.56 5.53 -3.72 1.1 C-2.72 0.1 -2.72 0.1 0 0 Z " fill="#E1D1F0" transform="translate(141.72265625,224.90234375)"/>
<path d="M0 0 C-0.68 0.42 -1.35 0.85 -2.05 1.29 C-7.68 4.99 -11.22 7.82 -14 14 C-14.81 12.38 -14.81 12.38 -15 10 C-13.56 7.79 -11.83 5.9 -10 4 C-10.66 3.34 -11.32 2.68 -12 2 C-11.46 1.88 -10.93 1.75 -10.38 1.62 C-8 1 -8 1 -4.88 -0.12 C-2 -1 -2 -1 0 0 Z " fill="#42587E" transform="translate(228,221)"/>
<path d="M0 0 C0.99 0.17 0.99 0.17 6 1 C5.01 1.33 4.02 1.66 3 2 C3.19 2.6 3.37 3.2 3.56 3.81 C4 6 4 6 3 9 C-0.75 7.55 -0.75 7.55 -1.88 5.06 C-2.02 2.64 -1.55 1.82 0 0 Z " fill="#5B72A2" transform="translate(319,122)"/>
<path d="M0 0 C3.9 0.78 7.39 2.39 11 4 C11 4.33 11 4.66 11 5 C7.04 5 3.08 5 -1 5 C-1.33 4.34 -1.66 3.68 -2 3 C-1.34 2.01 -0.68 1.02 0 0 Z " fill="#7E85A8" transform="translate(193,55)"/>
<path d="M0 0 C0.99 0 1.98 0 3 0 C2.89 1.58 2.76 3.17 2.62 4.75 C2.56 5.63 2.49 6.51 2.41 7.42 C2 9.99 1.29 11.76 0 14 C-2.01 9.14 -2.11 6.15 -1 1 C-0.67 0.67 -0.34 0.34 0 0 Z " fill="#3A527F" transform="translate(236,303)"/>
<path d="M0 0 C2.64 0.66 5.28 1.32 8 2 C8 1.34 8 0.68 8 0 C9.32 0.33 10.64 0.66 12 1 C10.4 1.87 8.8 2.72 7.19 3.56 C6.29 4.04 5.4 4.51 4.48 5 C2 6 2 6 -1 5 C-0.67 3.35 -0.34 1.7 0 0 Z " fill="#3B5780" transform="translate(242,277)"/>
<path d="M0 0 C2.31 0.66 4.62 1.32 7 2 C5.73 4.54 4.53 4.85 2 6 C0 7 0 7 -1 9 C-2 8 -2 8 -2.19 5.62 C-2 3 -2 3 0 0 Z " fill="#6478A2" transform="translate(317,118)"/>
<path d="M0 0 C0.33 0 0.66 0 1 0 C1.33 5.94 1.66 11.88 2 18 C1.67 17.01 1.34 16.02 1 15 C0.34 15 -0.32 15 -1 15 C-1.22 13.06 -1.43 11.13 -1.62 9.19 C-1.74 8.11 -1.86 7.03 -1.98 5.92 C-2 3.07 -1.96 2.01 0 0 Z " fill="#446091" transform="translate(238,286)"/>
<path d="M0 0 C0.33 0 0.66 0 1 0 C1.25 5.44 0.73 9.82 -1 15 C-2.69 13.56 -2.69 13.56 -4 11 C-3.24 7.13 -1.76 3.52 0 0 Z " fill="#3E4868" transform="translate(89,239)"/>
<path d="M0 0 C0.99 0.66 1.98 1.32 3 2 C-1.17 6.03 -4.09 8.71 -10 9 C-6.82 5.73 -3.61 2.79 0 0 Z " fill="#7B83A8" transform="translate(219,155)"/>
<path d="M0 0 C-2.58 0.87 -5.16 1.72 -7.75 2.56 C-8.11 2.69 -8.11 2.69 -9.96 3.31 C-10.67 3.54 -11.38 3.77 -12.11 4 C-12.76 4.22 -13.41 4.43 -14.08 4.65 C-16.33 5.06 -17.83 4.69 -20 4 C-13.59 0.81 -7.13 -2.38 0 0 Z " fill="#60688B" transform="translate(129,106)"/>
<path d="M0 0 C0.31 0.09 0.31 0.09 1.88 0.56 C4 1 4 1 6 0 C7.73 0.56 7.73 0.56 9.62 1.44 C10.26 1.72 10.89 2.01 11.54 2.31 C12.02 2.54 12.5 2.76 13 3 C12.67 3.66 12.34 4.32 12 5 C8.95 5.29 6.04 5.46 3 5 C0.94 2.5 0.94 2.5 0 0 Z " fill="#7E87AC" transform="translate(207,63)"/>
<path d="M0 0 C0.66 0.33 1.32 0.66 2 1 C2 6.94 2 12.88 2 19 C1.34 18.67 0.68 18.34 0 18 C-0.2 15.19 -0.38 12.38 -0.56 9.56 C-0.62 8.76 -0.67 7.96 -0.73 7.13 C-0.78 6.37 -0.83 5.6 -0.88 4.82 C-0.93 4.11 -0.97 3.4 -1.02 2.67 C-1 1 -1 1 0 0 Z " fill="#37436E" transform="translate(288,227)"/>
<path d="M0 0 C0.33 0 0.66 0 1 0 C1.17 5.36 0.57 10.19 -0.5 15.44 C-0.57 15.8 -0.57 15.8 -0.93 17.65 C-1.28 19.44 -1.64 21.22 -2 23 C-2.33 23 -2.66 23 -3 23 C-3 17.72 -3 12.44 -3 7 C-2.34 6.67 -1.68 6.34 -1 6 C-0.38 2.94 -0.38 2.94 0 0 Z " fill="#EAF1F8" transform="translate(120,154)"/>
<path d="M0 0 C0 3 0 3 -1.31 4.39 C-1.87 4.82 -2.43 5.25 -3 5.69 C-3.28 5.91 -3.28 5.91 -4.69 7.01 C-5.12 7.34 -5.55 7.66 -6 8 C-6.82 7.67 -6.82 7.67 -11 6 C-7.63 3.17 -4.05 1.6 0 0 Z " fill="#959DBA" transform="translate(191,56)"/>
<path d="M0 0 C1.98 0.99 3.96 1.98 6 3 C5.34 4.32 4.68 5.64 4 7 C1.27 6.44 -0.85 5.82 -3 4 C-3 3.34 -3 2.68 -3 2 C-1.5 0.88 -1.5 0.88 0 0 Z " fill="#EFF3F7" transform="translate(172,305)"/>
<path d="M0 0 C0.33 0 0.66 0 1 0 C1.07 3.51 1.13 7.01 1.16 10.52 C1.18 11.71 1.2 12.9 1.23 14.09 C1.26 15.81 1.28 17.52 1.29 19.24 C1.31 20.27 1.32 21.3 1.34 22.36 C1 25 1 25 -0.52 26.86 C-1.01 27.24 -1.5 27.61 -2 28 C-1.92 27.45 -1.92 27.45 -1.54 24.66 C-0.9 19.61 -0.66 14.57 -0.44 9.5 C-0.39 8.58 -0.35 7.66 -0.31 6.72 C-0.2 4.48 -0.1 2.24 0 0 Z " fill="#CBD5E2" transform="translate(240,284)"/>
<path d="M0 0 C0.66 0 1.32 0 2 0 C1.55 1.94 1.09 3.88 0.62 5.81 C0.37 6.89 0.11 7.97 -0.15 9.08 C-0.86 11.52 -1.43 13.06 -3 15 C-3.77 10.62 -4.19 7.36 -3 3 C-2.01 3 -1.02 3 0 3 C0 2.01 0 1.02 0 0 Z " fill="#5C3696" transform="translate(165,201)"/>
<path d="M0 0 C0.99 3.94 0.92 5.43 0.06 9.25 C-0.13 10.14 -0.33 11.03 -0.53 11.95 C-0.68 12.63 -0.84 13.3 -1 14 C-1.82 13.67 -1.82 13.67 -6 12 C-4.02 8.04 -2.04 4.08 0 0 Z " fill="#707995" transform="translate(319,192)"/>
<path d="M0 0 C0.33 1.32 0.66 2.64 1 4 C-2.3 4 -5.6 4 -9 4 C-9 3.01 -9 2.02 -9 1 C-5.93 0.09 -3.2 -0.09 0 0 Z " fill="#6343B2" transform="translate(161,200)"/>
<path d="M0 0 C3.48 3.11 6.25 6.65 8 11 C7.67 11.66 7.34 12.32 7 13 C3.98 11.08 1.42 9.43 0.38 5.89 C0.15 3.91 0.01 1.99 0 0 Z " fill="#6025A8" transform="translate(129,302)"/>
<path d="M0 0 C0.33 0 0.66 0 1 0 C1.33 6.82 1.24 11.92 -2 18 C-2.33 18 -2.66 18 -3 18 C-1.43 1.43 -1.43 1.43 0 0 Z " fill="#5B4B97" transform="translate(108,225)"/>
<path d="M0 0 C1.32 1.32 2.64 2.64 4 4 C3.67 4.66 3.34 5.32 3 6 C2.78 7.54 2.59 9.08 2.44 10.62 C2.35 11.44 2.27 12.26 2.18 13.1 C2.12 13.73 2.06 14.35 2 15 C1.34 15 0.68 15 0 15 C0 10.05 0 5.1 0 0 Z " fill="#365483" transform="translate(266,215)"/>
<path d="M0 0 C2 2 2 2 2.2 3.73 C2.13 5.48 2.07 7.24 2 9 C1.67 9.16 1.67 9.16 0 10 C-0.41 11.63 -0.41 11.63 -0.62 13.56 C-0.75 14.7 -0.87 15.83 -1 17 C-1.66 17 -2.32 17 -3 17 C-2.01 11.39 -1.02 5.78 0 0 Z " fill="#EBE8F7" transform="translate(147,182)"/>
<path d="M0 0 C0.33 0.99 0.66 1.98 1 3 C-0.59 4.59 -2.25 4.21 -4.44 4.25 C-5.24 4.28 -6.04 4.3 -6.87 4.33 C-9 4 -9 4 -10.29 2.48 C-10.52 1.99 -10.76 1.5 -11 1 C-3.57 -0.14 -3.57 -0.14 0 0 Z " fill="#4A699A" transform="translate(154,120)"/>
<path d="M0 0 C1.32 0.66 2.64 1.32 4 2 C2.73 5.91 1.49 7.79 -2 10 C-2.33 9.01 -2.66 8.02 -3 7 C-2.34 7 -1.68 7 -1 7 C-1.21 6.4 -1.41 5.8 -1.62 5.19 C-2 3 -2 3 -1.06 1.25 C-0.71 0.84 -0.36 0.43 0 0 Z " fill="#424D73" transform="translate(276,284)"/>
<path d="M0 0 C2.35 2.5 2.23 4.97 2.14 8.28 C1.98 10.27 1.61 12.1 1 14 C0.01 14 -0.98 14 -2 14 C-1.33 9.33 -0.67 4.67 0 0 Z " fill="#635BA4" transform="translate(110,211)"/>
<path d="M0 0 C0.33 0 0.66 0 1 0 C1.05 2.23 1.09 4.46 1.12 6.69 C1.14 7.31 1.16 7.94 1.18 8.58 C1.22 12.48 0.91 15.49 -1 19 C-2.62 20.31 -2.62 20.31 -4 21 C-3.9 20.66 -3.9 20.66 -3.38 18.95 C-1.55 12.62 -0.41 6.57 0 0 Z " fill="#E4EAF2" transform="translate(352,155)"/>
<path d="M0 0 C5.8 3.34 9.71 7.91 14 13 C13.01 13 12.02 13 11 13 C10.67 12.01 10.34 11.02 10 10 C9.34 10 8.68 10 8 10 C7.69 9.53 7.38 9.05 7.06 8.56 C6 7 6 7 3 6 C3 5.01 3 4.02 3 3 C2.01 2.67 1.02 2.34 0 2 C0 1.34 0 0.68 0 0 Z " fill="#506486" transform="translate(334,129)"/>
<path d="M0 0 C4.04 1.78 7.46 4.4 11 7 C10.67 7.66 10.34 8.32 10 9 C9.34 9 8.68 9 8 9 C7.67 8.34 7.34 7.68 7 7 C5.37 6.37 5.37 6.37 3.44 5.88 C2.8 5.71 2.16 5.54 1.5 5.37 C1 5.25 0.51 5.12 0 5 C0 3.35 0 1.7 0 0 Z " fill="#576B90" transform="translate(323,121)"/>
<path d="M0 0 C0.66 0.66 1.32 1.32 2 2 C1.62 4.63 1.62 4.63 1 7 C-0.42 6.55 -1.83 6.09 -3.25 5.62 C-4.04 5.37 -4.83 5.11 -5.64 4.85 C-7.87 4.05 -9.91 3.1 -12 2 C-8.7 0.88 -6.95 1.1 -3.75 2.44 C-3.04 2.72 -2.34 3.01 -1.61 3.31 C-1.08 3.54 -0.55 3.76 0 4 C0 2.68 0 1.36 0 0 Z " fill="#7B819E" transform="translate(219,85)"/>
<path d="M0 0 C0.62 0.04 1.24 0.08 1.88 0.12 C1.88 2.11 1.88 4.08 1.88 6.12 C0.22 6.12 -1.43 6.12 -3.12 6.12 C-3.75 4.25 -3.75 4.25 -4.12 2.12 C-2.12 0.12 -2.12 0.12 0 0 Z " fill="#375487" transform="translate(184.125,303.875)"/>
<path d="M0 0 C0.66 0.66 1.32 1.32 2 2 C1.34 2 0.68 2 0 2 C0 6.95 0 11.9 0 17 C-0.99 16.67 -1.98 16.34 -3 16 C-3.27 10.8 -2.44 6.01 -1 1 C-0.67 0.67 -0.34 0.34 0 0 Z " fill="#F2F6F8" transform="translate(248,287)"/>
<path d="M0 0 C1.98 0 3.96 0 6 0 C5.67 0.66 5.34 1.32 5 2 C4.01 2 3.02 2 2 2 C2 2.66 2 3.32 2 4 C1.01 4.33 0.02 4.66 -1 5 C-1 2 -1 2 0 0 Z M-2 5 C-1.67 5.99 -1.34 6.98 -1 8 C-2.32 8.99 -3.64 9.98 -5 11 C-5.33 10.01 -5.66 9.02 -6 8 C-4.68 7.01 -3.36 6.02 -2 5 Z " fill="#5C6F9D" transform="translate(303,212)"/>
<path d="M0 0 C0.33 0 0.66 0 1 0 C0.91 1.25 0.8 2.5 0.69 3.75 C0.63 4.45 0.57 5.14 0.51 5.86 C0 8 0 8 -3 12 C-3.33 8.7 -3.66 5.4 -4 2 C-3.01 2 -2.02 2 -1 2 C-0.67 1.34 -0.34 0.68 0 0 Z " fill="#405579" transform="translate(350,164)"/>
<path d="M0 0 C0.66 0.33 1.32 0.66 2 1 C0.97 4.1 0.21 4.79 -2 7 C-2.7 8.32 -3.37 9.65 -4 11 C-5 12.75 -5 12.75 -6 14 C-6.66 14 -7.32 14 -8 14 C-6.67 10.38 -5.06 7.36 -2.88 4.19 C-2.61 3.79 -2.61 3.79 -1.24 1.79 C-0.83 1.2 -0.42 0.61 0 0 Z " fill="#ECF2F8" transform="translate(199,203)"/>
<path d="M0 0 C0 1.65 0 3.3 0 5 C-0.33 5.16 -0.33 5.16 -2 6 C-2.85 7.63 -2.85 7.63 -3.62 9.56 C-3.89 10.2 -4.15 10.84 -4.41 11.5 C-4.61 12 -4.8 12.49 -5 13 C-6.24 9.41 -6.01 6.65 -5 3 C-1.8 0 -1.8 0 0 0 Z " fill="#F7F2FA" transform="translate(168,210)"/>
<path d="M0 0 C0.92 2.75 1.11 4.36 1.06 7.19 C1.05 7.9 1.04 8.62 1.04 9.36 C1.02 9.9 1.01 10.44 1 11 C0.01 11 -0.98 11 -2 11 C-2.94 7.33 -3.11 4.65 -2 1 C-1.34 0.67 -0.68 0.34 0 0 Z " fill="#67729D" transform="translate(93,198)"/>
<path d="M0 0 C1.77 0.11 3.54 0.24 5.31 0.38 C5.81 0.41 5.81 0.41 8.3 0.59 C11 1 11 1 14 3 C8.72 3 3.44 3 -2 3 C-1.34 2.01 -0.68 1.02 0 0 Z " fill="#2E4B7B" transform="translate(279,179)"/>
<path d="M0 0 C0.35 0.11 0.35 0.11 2.12 0.69 C3.79 1.03 5.46 1.36 7.12 1.69 C7.12 2.35 7.12 3.01 7.12 3.69 C0.85 5.04 0.85 5.04 -2.81 3.25 C-3.49 2.73 -4.17 2.22 -4.88 1.69 C-3.09 0.17 -2.36 -0.39 0 0 Z " fill="#385381" transform="translate(322.875,141.3125)"/>
<path d="M0 0 C0.66 0.33 1.32 0.66 2 1 C2 3.31 2 5.62 2 8 C0.68 7.67 -0.64 7.34 -2 7 C-2.33 5.35 -2.66 3.7 -3 2 C-2.01 1.34 -1.02 0.68 0 0 Z " fill="#3B4772" transform="translate(142,296)"/>
<path d="M0 0 C1.32 0.33 2.64 0.66 4 1 C4 1.99 4 2.98 4 4 C7.3 4 10.6 4 14 4 C14 4.33 14 4.66 14 5 C11.85 5.16 11.85 5.16 1 6 C0.67 4.02 0.34 2.04 0 0 Z " fill="#685CAB" transform="translate(140,195)"/>
<path d="M0 0 C0 0.99 0 1.98 0 3 C-2.97 3 -5.94 3 -9 3 C-9.33 2.34 -9.66 1.68 -10 1 C-6.22 -0.84 -4.05 -1.16 0 0 Z " fill="#3F5A88" transform="translate(290,177)"/>
<path d="M0 0 C0.66 0.66 1.32 1.32 2 2 C0.55 3.34 -0.91 4.67 -2.38 6 C-3.19 6.74 -4 7.49 -4.84 8.25 C-7 10 -7 10 -9 10 C-8.02 6.69 -7.41 5.28 -4.5 3.31 C-3.68 2.88 -2.85 2.45 -2 2 C-1.34 1.34 -0.68 0.68 0 0 Z " fill="#EEF1F7" transform="translate(233,141)"/>
<path d="M0 0 C3.74 1.25 4.19 2.63 6 6 C5.01 6 4.02 6 3 6 C2.67 6.66 2.34 7.32 2 8 C0.44 6.25 0.44 6.25 -1 4 C-0.69 1.75 -0.69 1.75 0 0 Z " fill="#EBEDF2" transform="translate(149,321)"/>
<path d="M0 0 C0.99 0 1.98 0 3 0 C3.66 1.65 4.32 3.3 5 5 C5.99 5 6.98 5 8 5 C7.67 6.32 7.34 7.64 7 9 C6.34 9 5.68 9 5 9 C3.35 6.03 1.7 3.06 0 0 Z " fill="#3F4B73" transform="translate(144,311)"/>
<path d="M0 0 C0 1.98 0 3.96 0 6 C-2.31 4.68 -4.62 3.36 -7 2 C-7 1.34 -7 0.68 -7 0 C-4.33 -1.33 -2.83 -0.67 0 0 Z " fill="#F8F6FB" transform="translate(145,312)"/>
<path d="M0 0 C0.33 0 0.66 0 1 0 C0.67 2.97 0.34 5.94 0 9 C-1.98 9.66 -3.96 10.32 -6 11 C-4.02 7.37 -2.04 3.74 0 0 Z " fill="#EAEFF4" transform="translate(262,138)"/>
<path d="M0 0 C2.31 1.98 4.62 3.96 7 6 C6.34 6.66 5.68 7.32 5 8 C4.79 7.74 4.79 7.74 3.75 6.44 C3.46 6.2 3.46 6.2 2 5 C-0.19 5.31 -0.19 5.31 -2 6 C-1.49 3.83 -1 2 0 0 Z " fill="#6E7C9E" transform="translate(315,112)"/>
<path d="M0 0 C0.66 0 1.32 0 2 0 C3.35 1.45 4.49 3.01 5.68 4.59 C7 6 7 6 10 7 C10.33 8.65 10.66 10.3 11 12 C2.63 4.95 2.63 4.95 0 2 C0 1.34 0 0.68 0 0 Z " fill="#5B2C92" transform="translate(117,297)"/>
<path d="M0 0 C1.13 0.93 2.25 1.87 3.38 2.81 C4 3.33 4.63 3.86 5.27 4.39 C6.84 5.85 7.91 7.17 9 9 C6 9 6 9 4.18 7.47 C3.56 6.82 2.95 6.17 2.31 5.5 C1.69 4.85 1.07 4.2 0.43 3.53 C-0.04 3.03 -0.52 2.52 -1 2 C-0.67 1.34 -0.34 0.68 0 0 Z " fill="#DEE2EA" transform="translate(141,282)"/>
<path d="M0 0 C1.18 3.55 0.7 4.7 -0.44 8.19 C-0.72 9.09 -1.01 9.99 -1.31 10.92 C-1.54 11.61 -1.76 12.29 -2 13 C-2.66 12.34 -3.32 11.68 -4 11 C-3.69 8.62 -3.69 8.62 -3 6 C-2.81 5.24 -2.63 4.47 -2.44 3.69 C-2.29 3.13 -2.15 2.57 -2 2 C-1.34 2 -0.68 2 0 2 C0 1.34 0 0.68 0 0 Z " fill="#5C6E93" transform="translate(313,219)"/>
<path d="M0 0 C0.66 0 1.32 0 2 0 C2.33 2.31 2.66 4.62 3 7 C2.5 7.33 2.5 7.33 0 9 C-0.66 6.69 -1.32 4.38 -2 2 C-1.34 1.34 -0.68 0.68 0 0 Z " fill="#5E3CAE" transform="translate(191,148)"/>
<path d="M0 0 C0.99 0.66 1.98 1.32 3 2 C2.67 4.31 2.34 6.62 2 9 C1.34 9 0.68 9 0 9 C-0.33 9.99 -0.66 10.98 -1 12 C-2.1 8.7 -1.87 7.6 -1.06 4.31 C-0.87 3.5 -0.67 2.7 -0.47 1.86 C-0.39 1.56 -0.39 1.56 0 0 Z " fill="#9098B9" transform="translate(260,100)"/>
<path d="M0 0 C1.32 0 2.64 0 4 0 C3.67 2.64 3.34 5.28 3 8 C2.01 8 1.02 8 0 8 C0 5.36 0 2.72 0 0 Z " fill="#7580A3" transform="translate(301,95)"/>
<path d="M0 0 C0 1.65 0 3.3 0 5 C-0.99 5 -1.98 5 -3 5 C-3.33 6.32 -3.66 7.64 -4 9 C-4.66 9 -5.32 9 -6 9 C-5.72 7.69 -5.42 6.37 -5.12 5.06 C-4.96 4.33 -4.8 3.6 -4.63 2.85 C-3.74 0.23 -2.69 0 0 0 Z " fill="#4C658F" transform="translate(232,310)"/>
<path d="M0 0 C0.7 0.74 1.4 1.49 2.12 2.25 C4.84 4.98 7.75 6.96 11 9 C10.67 9.66 10.34 10.32 10 11 C8.72 10.09 7.45 9.17 6.19 8.25 C5.48 7.74 4.77 7.23 4.04 6.7 C1.97 4.98 0.53 3.21 -1 1 C-0.67 0.67 -0.34 0.34 0 0 Z " fill="#4B6187" transform="translate(185,267)"/>
<path d="M0 0 C0.33 0 0.66 0 1 0 C1 1.65 1 3.3 1 5 C0.34 5.33 0.34 5.33 -3 7 C-3 7.66 -3 8.32 -3 9 C-3.99 8.67 -4.98 8.34 -6 8 C-5.02 6.66 -4.04 5.33 -3.06 4 C-2.52 3.26 -1.97 2.51 -1.41 1.75 C-0.94 1.17 -0.48 0.6 0 0 Z " fill="#496088" transform="translate(255,259)"/>
<path d="M0 0 C1.46 0.62 1.46 0.62 3 2 C3.51 4.82 3.51 4.82 3.69 8.12 C3.75 9.22 3.82 10.32 3.89 11.45 C3.92 12.29 3.96 13.13 4 14 C0.73 10.73 0.04 7.17 -0.12 2.62 C-0.08 1.76 -0.04 0.89 0 0 Z " fill="#5A6991" transform="translate(170,239)"/>
<path d="M0 0 C0.66 0.33 1.32 0.66 2 1 C1.67 5.95 1.34 10.9 1 16 C0.67 16 0.34 16 0 16 C-0.06 15.46 -0.12 14.91 -0.18 14.36 C-0.27 13.64 -0.35 12.92 -0.44 12.19 C-0.52 11.48 -0.6 10.77 -0.68 10.04 C-1 8 -1 8 -2 5 C-1.06 2.31 -1.06 2.31 0 0 Z " fill="#4E5B81" transform="translate(291,217)"/>
<path d="M0 0 C-1.15 3.45 -2.32 4.38 -5.06 6.69 C-5.8 7.31 -6.53 7.93 -7.29 8.57 C-7.85 9.04 -8.42 9.52 -9 10 C-9.33 9.01 -9.66 8.02 -10 7 C-8.68 6.34 -7.36 5.68 -6 5 C-6 4.34 -6 3.68 -6 3 C-2.54 0 -2.54 0 0 0 Z " fill="#DDE6EE" transform="translate(219,204)"/>
<path d="M0 0 C3.58 3.34 5.9 5.74 6.12 10.75 C6.08 11.49 6.04 12.24 6 13 C5.67 13.16 5.67 13.16 4 14 C3.88 13.41 3.76 12.82 3.63 12.21 C2.73 7.96 1.8 3.98 0 0 Z " fill="#623B95" transform="translate(213,133)"/>
<path d="M0 0 C1.27 -0.05 2.54 -0.09 3.81 -0.12 C4.52 -0.15 5.23 -0.17 5.96 -0.2 C8.21 0.02 9.25 0.6 11 2 C9.88 2.36 8.75 2.72 7.62 3.06 C7 3.26 6.37 3.46 5.73 3.66 C4 4 4 4 2 3 C2 2.34 2 1.68 2 1 C1.34 0.67 0.68 0.34 0 0 Z " fill="#495796" transform="translate(181,120)"/>
<path d="M0 0 C2.31 0 4.62 0 7 0 C7 0.66 7 1.32 7 2 C7.66 2.33 8.32 2.66 9 3 C5.7 3.33 2.4 3.66 -1 4 C-0.67 2.68 -0.34 1.36 0 0 Z " fill="#495FA9" transform="translate(176,121)"/>
<path d="M0 0 C0 0.66 0 1.32 0 2 C0.66 2.33 1.32 2.66 2 3 C2.66 4.32 3.32 5.64 4 7 C2.35 6.34 2.35 6.34 -6 3 C-2 0 -2 0 0 0 Z " fill="#7E86A8" transform="translate(203,80)"/>
<path d="M0 0 C0.99 0.33 1.98 0.66 3 1 C3.69 3.06 3.69 3.06 4 5 C1.69 4.67 -0.62 4.34 -3 4 C-2.67 3.01 -2.34 2.02 -2 1 C-1.34 0.67 -0.68 0.34 0 0 Z " fill="#374066" transform="translate(263,281)"/>
<path d="M0 0 C0.5 0.33 0.5 0.33 3 2 C2.67 4.97 2.34 7.94 2 11 C1.34 11 0.68 11 0 11 C0 7.37 0 3.74 0 0 Z " fill="#5D249B" transform="translate(130,250)"/>
<path d="M0 0 C0.66 0 1.32 0 2 0 C2 1.32 2 2.64 2 4 C1.34 4 0.68 4 0 4 C0 4.66 0 5.32 0 6 C-3.96 6 -7.92 6 -12 6 C-12 5.67 -12 5.34 -12 5 C-11.3 4.97 -10.6 4.95 -9.88 4.92 C-8.97 4.87 -8.06 4.81 -7.12 4.75 C-6.22 4.7 -5.32 4.66 -4.38 4.61 C-2 4 -2 4 -0.68 1.95 C-0.57 1.63 -0.57 1.63 0 0 Z " fill="#6230A8" transform="translate(160,217)"/>
<path d="M0 0 C0.33 1.32 0.66 2.64 1 4 C-0.21 5.92 -0.21 5.92 -1.94 7.75 C-2.5 8.36 -3.07 8.98 -3.65 9.61 C-3.87 9.84 -3.87 9.84 -5 11 C-5.66 10.34 -6.32 9.68 -7 9 C-4.69 6.03 -2.38 3.06 0 0 Z " fill="#EFF1F8" transform="translate(188,180)"/>
<path d="M0 0 C0.99 0.99 1.98 1.98 3 3 C3.66 2.34 4.32 1.68 5 1 C4.41 6.37 4.41 6.37 4 8 C3.67 8.16 3.67 8.16 2 9 C-0.49 6.2 -0.16 3.6 0 0 Z " fill="#486390" transform="translate(347,150)"/>
<path d="M0 0 C0.28 0.08 0.28 0.08 1.67 0.46 C4.2 1.05 6.66 1.32 9.25 1.56 C10.14 1.65 11.03 1.73 11.95 1.82 C12.63 1.88 13.3 1.94 14 2 C14 2.33 14 2.66 14 3 C11.85 3.16 11.85 3.16 1 4 C0.67 2.68 0.34 1.36 0 0 Z " fill="#3F5288" transform="translate(153,142)"/>
<path d="M0 0 C7.43 0.86 7.43 0.86 11 3 C11 3.66 11 4.32 11 5 C10.01 5 9.02 5 8 5 C8 4.34 8 3.68 8 3 C5.03 2.67 2.06 2.34 -1 2 C-0.67 1.34 -0.34 0.68 0 0 Z " fill="#534E95" transform="translate(193,122)"/>
<path d="M0 0 C0.33 0 0.66 0 1 0 C1.33 4.95 1.66 9.9 2 15 C0.68 14.34 -0.64 13.68 -2 13 C-1.34 12.67 -0.68 12.34 0 12 C0 8.04 0 4.08 0 0 Z " fill="#364E76" transform="translate(211,237)"/>
<path d="M0 0 C0.66 0 1.32 0 2 0 C1.67 1.32 1.34 2.64 1 4 C-1.31 3.84 -1.31 3.84 -13 3 C-13 2.67 -13 2.34 -13 2 C-8.71 2 -4.42 2 0 2 C0 1.34 0 0.68 0 0 Z " fill="#643C97" transform="translate(160,221)"/>
<path d="M0 0 C0.33 0 0.66 0 1 0 C1.14 1.05 1.29 2.1 1.44 3.19 C1.86 6.15 2.38 9.07 3 12 C1.99 10.67 0.99 9.34 0 8 C-0.41 7.5 -0.82 7.01 -1.25 6.5 C-2 5 -2 5 -1.69 2.88 C-1 1 -1 1 0 0 Z " fill="#375688" transform="translate(257,127)"/>
<path d="M0 0 C1.53 1.83 1.99 2.77 2.05 5.19 C2 5.58 2 5.58 1.75 7.56 C1.66 8.35 1.57 9.13 1.48 9.94 C1 12 1 12 -1 14 C-1.12 8.25 -1.12 8.25 0 6 C0.04 4 0.04 2 0 0 Z " fill="#3B557F" transform="translate(268,112)"/>
<path d="M0 0 C0.33 1.32 0.66 2.64 1 4 C-0.65 4 -2.3 4 -4 4 C-4 3.34 -4 2.68 -4 2 C-5.32 1.67 -6.64 1.34 -8 1 C-5.07 0.02 -3.04 -0.08 0 0 Z " fill="#8991B1" transform="translate(129,82)"/>
<path d="M0 0 C0.66 0.33 1.32 0.66 2 1 C1.67 2.32 1.34 3.64 1 5 C-3.68 4.38 -3.68 4.38 -5.31 2.44 C-5.54 1.96 -5.77 1.49 -6 1 C-5.6 1.01 -5.6 1.01 -3.56 1.06 C-1 1 -1 1 0 0 Z " fill="#35436E" transform="translate(170,333)"/>
<path d="M0 0 C0.5 0.33 0.5 0.33 3 2 C3.19 4.62 3.19 4.62 3 7 C2.01 7 1.02 7 0 7 C-0.33 7.66 -0.66 8.32 -1 9 C-0.67 6.03 -0.34 3.06 0 0 Z " fill="#414C77" transform="translate(139,288)"/>
<path d="M0 0 C1.18 0.93 2.34 1.87 3.5 2.81 C4.15 3.33 4.8 3.86 5.47 4.39 C7 6 7 6 7 9 C3.46 7.32 2.21 6.51 0.69 2.81 C0.46 1.88 0.23 0.96 0 0 Z " fill="#496084" transform="translate(193,259)"/>
<path d="M0 0 C0 1.32 0 2.64 0 4 C0.99 4 1.98 4 3 4 C2.67 4.99 2.34 5.98 2 7 C-0.64 5.35 -3.28 3.7 -6 2 C-2 0 -2 0 0 0 Z " fill="#6759A2" transform="translate(186,145)"/>
<path d="M0 0 C-0.33 1.32 -0.66 2.64 -1 4 C-2.32 4 -3.64 4 -5 4 C-5 3.34 -5 2.68 -5 2 C-6.32 1.67 -7.64 1.34 -9 1 C-5.8 -0.07 -3.34 -0.07 0 0 Z " fill="#3B5A8E" transform="translate(146,122)"/>
<path d="M0 0 C0 1.32 0 2.64 0 4 C-1.32 4 -2.64 4 -4 4 C-4.33 4.66 -4.66 5.32 -5 6 C-5 4.68 -5 3.36 -5 2 C-5.66 1.67 -6.32 1.34 -7 1 C-4.51 0.31 -2.62 0 0 0 Z " fill="#9097B8" transform="translate(103,89)"/>
<path d="M0 0 C0.66 0 1.32 0 2 0 C1.41 5.37 1.41 5.37 1 7 C0.67 7.17 0.67 7.17 -1 8 C-1 7.01 -1 6.02 -1 5 C-1.66 4.67 -2.32 4.34 -3 4 C-1.62 2 -1.62 2 0 0 Z " fill="#36507C" transform="translate(224,322)"/>
<path d="M0 0 C1.15 0.95 2.29 1.91 3.44 2.88 C3.76 3.14 3.76 3.14 5.37 4.49 C7 6 7 6 8 8 C4.21 7.46 2.41 5.92 0 3 C0 2.01 0 1.02 0 0 Z " fill="#E5D9F0" transform="translate(119,301)"/>
<path d="M0 0 C5.37 0.59 5.37 0.59 7 1 C7.33 1.66 7.66 2.32 8 3 C1.25 4 1.25 4 -1 4 C-0.67 2.68 -0.34 1.36 0 0 Z " fill="#335284" transform="translate(195,266)"/>
<path d="M0 0 C0.99 0.33 1.98 0.66 3 1 C2.67 3.97 2.34 6.94 2 10 C1.34 9.67 0.68 9.34 0 9 C0 6.03 0 3.06 0 0 Z " fill="#6C3BA0" transform="translate(129,260)"/>
<path d="M0 0 C2.13 1.07 3.37 2.29 5 4 C5.33 3.34 5.66 2.68 6 2 C6.66 3.98 7.32 5.96 8 8 C4.68 6.83 2.17 5.85 0 3 C0 2.01 0 1.02 0 0 Z " fill="#566682" transform="translate(208,248)"/>
<path d="M0 0 C1.43 2.35 2.09 3.48 1.62 6.25 C1.52 6.54 1.52 6.54 1 8 C0.34 7.34 -0.32 6.68 -1 6 C-1.99 5.67 -2.98 5.34 -4 5 C-2.68 3.35 -1.36 1.7 0 0 Z " fill="#6C3EB3" transform="translate(136,225)"/>
<path d="M0 0 C1.32 0.66 2.64 1.32 4 2 C4 2.66 4 3.32 4 4 C3.34 4 2.68 4 2 4 C1.34 5.32 0.68 6.64 0 8 C-0.8 4.71 -1.1 3.29 0 0 Z " fill="#F0F2F6" transform="translate(99,225)"/>
<path d="M0 0 C0.99 0 1.98 0 3 0 C5.09 4.43 5.09 4.43 4.62 7.31 C4.42 7.87 4.21 8.43 4 9 C0 3.38 0 3.38 0 0 Z " fill="#3F577F" transform="translate(253,226)"/>
<path d="M0 0 C2.11 2.57 2.22 4.41 2.12 7.69 C2.11 8.5 2.09 9.3 2.07 10.14 C2.05 10.75 2.02 11.37 2 12 C-0.04 8.23 -0.6 5.24 -1 1 C-0.67 0.67 -0.34 0.34 0 0 Z " fill="#355285" transform="translate(186,213)"/>
<path d="M0 0 C1 3 1 3 0.22 4.82 C-0.16 5.44 -0.54 6.05 -0.94 6.69 C-1.32 7.31 -1.7 7.93 -2.09 8.57 C-2.39 9.04 -2.69 9.52 -3 10 C-3.66 10 -4.32 10 -5 10 C-5 8.68 -5 7.36 -5 6 C-4.34 6 -3.68 6 -3 6 C-2.69 5.2 -2.38 4.39 -2.06 3.56 C-1 1 -1 1 0 0 Z " fill="#EAF2F7" transform="translate(208,212)"/>
<path d="M0 0 C0.66 0.33 1.32 0.66 2 1 C1 4 1 4 -1 6 C-3.12 6.12 -3.12 6.12 -5 6 C-5 4.68 -5 3.36 -5 2 C-4.01 2.33 -3.02 2.66 -2 3 C-1.34 2.01 -0.68 1.02 0 0 Z " fill="#4B658C" transform="translate(350,161)"/>
<path d="M0 0 C0.66 0 1.32 0 2 0 C2 0.99 2 1.98 2 3 C2.66 3.33 3.32 3.66 4 4 C2.33 5.67 0.67 7.33 -1 9 C-0.67 6.03 -0.34 3.06 0 0 Z " fill="#415E90" transform="translate(123,148)"/>
<path d="M0 0 C3.6 0.56 5 1.75 7.25 4.56 C7.51 4.88 7.51 4.88 8.83 6.5 C9.21 7 9.6 7.49 10 8 C7.29 6.73 5.03 5.37 2.75 3.44 C2.23 3 1.71 2.57 1.17 2.12 C0.79 1.75 0.4 1.38 0 1 C0 0.67 0 0.34 0 0 Z " fill="#6F5C87" transform="translate(140,319)"/>
<path d="M0 0 C0 0.99 0 1.98 0 3 C-3.33 6 -3.33 6 -6 6 C-6 5.34 -6 4.68 -6 4 C-6.66 3.67 -7.32 3.34 -8 3 C-5.36 2.01 -2.72 1.02 0 0 Z " fill="#ECF3F8" transform="translate(249,280)"/>
<path d="M0 0 C0.66 0 1.32 0 2 0 C2.67 1.27 3.34 2.54 4 3.81 C4.19 4.17 4.19 4.17 5.12 5.96 C6 8 6 8 6 11 C4.99 9.55 4 8.09 3 6.62 C2.72 6.22 2.72 6.22 1.31 4.16 C0 2 0 2 0 0 Z " fill="#55648B" transform="translate(174,254)"/>
<path d="M0 0 C3 1 3 1 3.77 2.49 C3.85 2.79 3.85 2.79 4.25 4.31 C4.34 4.61 4.34 4.61 4.77 6.11 C5.04 8.31 4.65 9.9 4 12 C3.33 10.38 2.66 8.75 2 7.12 C1.63 6.22 1.26 5.32 0.88 4.38 C0 2 0 2 0 0 Z " fill="#E7F0F6" transform="translate(270,219)"/>
<path d="M0 0 C2.5 1.19 2.5 1.19 5 3 C5.31 5.69 5.31 5.69 5 8 C4.67 8.16 4.67 8.16 3 9 C2.67 7.02 2.34 5.04 2 3 C1.34 3 0.68 3 0 3 C0 2.01 0 1.02 0 0 Z " fill="#4A5377" transform="translate(95,217)"/>
<path d="M0 0 C0.33 0.16 0.33 0.16 2 1 C2.63 3.07 2.63 3.07 3.12 5.56 C3.29 6.39 3.46 7.22 3.63 8.07 C3.75 8.7 3.88 9.34 4 10 C3.01 9.67 2.02 9.34 1 9 C0.67 6.03 0.34 3.06 0 0 Z " fill="#6E7693" transform="translate(95,209)"/>
<path d="M0 0 C1.32 0.33 2.64 0.66 4 1 C4 3.31 4 5.62 4 8 C2 6.81 2 6.81 0 5 C-0.25 2.31 -0.25 2.31 0 0 Z " fill="#626F95" transform="translate(313,204)"/>
<path d="M0 0 C0.33 0.16 0.33 0.16 2 1 C1.67 2.32 1.34 3.64 1 5 C1.66 5 2.32 5 3 5 C2.67 6.65 2.34 8.3 2 10 C1.34 10 0.68 10 0 10 C0 6.7 0 3.4 0 0 Z " fill="#415FA1" transform="translate(121,163)"/>
<path d="M0 0 C-2.16 1.08 -3.74 1.29 -6.12 1.56 C-6.85 1.65 -7.57 1.73 -8.32 1.82 C-8.87 1.88 -9.43 1.94 -10 2 C-10.33 1.34 -10.66 0.68 -11 0 C-6.99 -2.89 -4.34 -1.5 0 0 Z " fill="#68729E" transform="translate(131,105)"/>
<path d="M0 0 C-4.22 3.22 -6.5 4.52 -12 4 C-9.95 1.95 -8.67 1.32 -6 0.31 C-5.3 0.04 -4.6 -0.23 -3.88 -0.51 C-2 -1 -2 -1 0 0 Z " fill="#E9ECF3" transform="translate(170,93)"/>
<path d="M0 0 C1.32 0.33 2.64 0.66 4 1 C4 3.31 4 5.62 4 8 C1.1 5.6 0.5 3.69 0 0 Z " fill="#323C61" transform="translate(141,303)"/>
<path d="M0 0 C1.32 0.66 2.64 1.32 4 2 C-0.39 5.22 -0.39 5.22 -2 6 C-2.99 5.67 -3.98 5.34 -5 5 C-3.35 3.35 -1.7 1.7 0 0 Z " fill="#415D8D" transform="translate(245,269)"/>
<path d="M0 0 C0.66 0 1.32 0 2 0 C1.25 5.75 1.25 5.75 -1 8 C-1.33 6.35 -1.66 4.7 -2 3 C-1.34 3 -0.68 3 0 3 C0 2.01 0 1.02 0 0 Z " fill="#4A628A" transform="translate(295,259)"/>
<path d="M0 0 C0 0.66 0 1.32 0 2 C-1.12 2.7 -2.25 3.38 -3.38 4.06 C-4 4.45 -4.63 4.83 -5.27 5.22 C-5.84 5.48 -6.41 5.74 -7 6 C-7.66 5.67 -8.32 5.34 -9 5 C-8.07 4.16 -7.13 3.33 -6.19 2.5 C-5.93 2.27 -5.93 2.27 -4.61 1.09 C-3 0 -3 0 0 0 Z " fill="#3C537B" transform="translate(222,205)"/>
<path d="M0 0 C0 1.65 0 3.3 0 5 C-0.99 4.67 -1.98 4.34 -3 4 C-3.99 4.33 -4.98 4.66 -6 5 C-5.67 3.68 -5.34 2.36 -5 1 C-1.12 0 -1.12 0 0 0 Z " fill="#65719F" transform="translate(185,193)"/>
<path d="M0 0 C1.06 1.12 1.06 1.12 2 3 C1.62 6.19 1.62 6.19 1 9 C-1 7 -1 7 -1.19 3.94 C-1 1 -1 1 0 0 Z " fill="#425B83" transform="translate(349,146)"/>
<path d="M0 0 C-0.99 0.82 -0.99 0.82 -6 5 C-6.66 4.67 -7.32 4.34 -8 4 C-8 3.01 -8 2.02 -8 1 C-2.25 -1.12 -2.25 -1.12 0 0 Z " fill="#663D9B" transform="translate(217,148)"/>
<path d="M0 0 C1.15 0.59 2.3 1.2 3.44 1.81 C3.76 1.98 3.76 1.98 5.37 2.83 C7 4 7 4 8 7 C7.01 7.33 6.02 7.66 5 8 C4.55 7.2 4.09 6.39 3.62 5.56 C2 3 2 3 0 2 C0 1.34 0 0.68 0 0 Z " fill="#5C4498" transform="translate(205,126)"/>
<path d="M0 0 C3.61 4.82 3.61 4.82 4 8 C3.56 10.75 3.56 10.75 3 13 C2.67 13 2.34 13 2 13 C1.34 8.71 0.68 4.42 0 0 Z " fill="#57668B" transform="translate(264,70)"/>
<path d="M0 0 C1.33 2.67 0.67 4.17 0 7 C-1.32 6.67 -2.64 6.34 -4 6 C-2.85 3.53 -1.95 1.95 0 0 Z " fill="#323B5C" transform="translate(273,271)"/>
<path d="M0 0 C2.83 3.2 3.52 5.78 4 10 C3.01 9.67 2.02 9.34 1 9 C0.67 6.03 0.34 3.06 0 0 Z " fill="#6D33AD" transform="translate(130,244)"/>
<path d="M0 0 C0.33 0 0.66 0 1 0 C1.05 1.29 1.09 2.58 1.12 3.88 C1.15 4.59 1.17 5.31 1.2 6.05 C1 8 1 8 -1 10 C-2.47 6.19 -1.43 3.71 0 0 Z " fill="#394672" transform="translate(89,239)"/>
<path d="M0 0 C0.99 0 1.98 0 3 0 C3 1.32 3 2.64 3 4 C3.66 4.33 4.32 4.66 5 5 C4.67 5.5 4.67 5.5 3 8 C0 2.25 0 2.25 0 0 Z " fill="#3B4565" transform="translate(81,239)"/>
<path d="M0 0 C0.66 0.33 1.32 0.66 2 1 C2.99 0.67 3.98 0.34 5 0 C5.33 0.99 5.66 1.98 6 3 C4.51 3.16 4.51 3.16 -3 4 C-2.01 2.68 -1.02 1.36 0 0 Z " fill="#334E7D" transform="translate(212,211)"/>
<path d="M0 0 C0.33 0 0.66 0 1 0 C1 1.98 1 3.96 1 6 C0.34 6 -0.32 6 -1 6 C-1.33 7.32 -1.66 8.64 -2 10 C-3.11 6.66 -2.98 6.31 -1.56 3.31 C-1.28 2.69 -0.99 2.07 -0.69 1.43 C-0.46 0.96 -0.24 0.48 0 0 Z " fill="#6F799E" transform="translate(175,203)"/>
<path d="M0 0 C-0.33 1.32 -0.66 2.64 -1 4 C-3.31 3.34 -5.62 2.68 -8 2 C-4.77 -0.15 -3.72 -0.2 0 0 Z " fill="#EDF3F7" transform="translate(253,200)"/>
<path d="M0 0 C0.83 0.16 0.83 0.16 5 1 C4.01 1.33 3.02 1.66 2 2 C2 3.65 2 5.3 2 7 C1.67 7.16 1.67 7.16 0 8 C0 5.36 0 2.72 0 0 Z " fill="#4555A6" transform="translate(120,184)"/>
<path d="M0 0 C1.65 0.99 3.3 1.98 5 3 C4.55 3.25 4.09 3.5 3.62 3.75 C2 5 2 5 0 9 C0 6.03 0 3.06 0 0 Z " fill="#ECF5F9" transform="translate(310,138)"/>
<path d="M0 0 C2.39 0.58 4.67 1.22 7 2 C7 2.66 7 3.32 7 4 C5.02 4 3.04 4 1 4 C0.67 2.68 0.34 1.36 0 0 Z " fill="#8A93B7" transform="translate(148,74)"/>
<path d="M0 0 C2 2 2 2 2.12 4.62 C2.08 5.41 2.04 6.19 2 7 C1.34 7 0.68 7 0 7 C-0.33 7.99 -0.66 8.98 -1 10 C-0.67 6.7 -0.34 3.4 0 0 Z " fill="#3C547E" transform="translate(230,303)"/>
<path d="M0 0 C3.88 1.77 6.09 3.93 9 7 C6 7 6 7 4.39 5.47 C3.87 4.82 3.35 4.17 2.81 3.5 C2.55 3.18 2.55 3.18 1.21 1.53 C0.81 1.03 0.41 0.52 0 0 Z " fill="#ECF4F9" transform="translate(195,260)"/>
<path d="M0 0 C0.66 0 1.32 0 2 0 C1.67 2.64 1.34 5.28 1 8 C-1 6 -1 6 -1.19 3.44 C-1 1 -1 1 0 0 Z " fill="#E8E4F4" transform="translate(104,234)"/>
<path d="M0 0 C0.66 0 1.32 0 2 0 C1.34 2.31 0.68 4.62 0 7 C-0.66 7 -1.32 7 -2 7 C-2.12 4.62 -2.12 4.62 -2 2 C-1.34 1.34 -0.68 0.68 0 0 Z " fill="#EAEDF3" transform="translate(286,226)"/>
<path d="M0 0 C3.26 0.35 4.02 1.02 6.25 3.56 C6.83 4.37 7.4 5.17 8 6 C7.18 5.67 7.18 5.67 3 4 C3 3.34 3 2.68 3 2 C2.01 2 1.02 2 0 2 C0 1.34 0 0.68 0 0 Z " fill="#4A6082" transform="translate(259,209)"/>
<path d="M0 0 C-0.66 1.65 -1.32 3.3 -2 5 C-2.99 5 -3.98 5 -5 5 C-5.33 3.68 -5.66 2.36 -6 1 C-3.92 0.45 -2.16 0 0 0 Z " fill="#6F5397" transform="translate(170,196)"/>
<path d="M0 0 C0.33 0 0.66 0 1 0 C1 2.31 1 4.62 1 7 C0.01 7.33 -0.98 7.66 -2 8 C-2 6.02 -2 4.04 -2 2 C-1.34 2 -0.68 2 0 2 C0 1.34 0 0.68 0 0 Z " fill="#4A5C98" transform="translate(119,175)"/>
<path d="M0 0 C0.66 0.66 1.32 1.32 2 2 C-0.31 3.65 -2.62 5.3 -5 7 C-5 6.01 -5 5.02 -5 4 C-2.5 1.81 -2.5 1.81 0 0 Z " fill="#ECEFF7" transform="translate(214,157)"/>
<path d="M0 0 C0.66 0.33 1.32 0.66 2 1 C0.35 2.65 -1.3 4.3 -3 6 C-3.99 5.67 -4.98 5.34 -6 5 C-4.02 3.35 -2.04 1.7 0 0 Z " fill="#F5EDFA" transform="translate(208,154)"/>
<path d="M0 0 C0.33 0.99 0.66 1.98 1 3 C0.01 3.66 0.01 3.66 -5 7 C-5.66 6.67 -6.32 6.34 -7 6 C-4.69 4.02 -2.38 2.04 0 0 Z " fill="#767EA0" transform="translate(232,145)"/>
<path d="M0 0 C1.98 0.66 3.96 1.32 6 2 C5.34 3.32 4.68 4.64 4 6 C3.34 5.67 2.68 5.34 2 5 C2 4.34 2 3.68 2 3 C1.34 3 0.68 3 0 3 C0 2.01 0 1.02 0 0 Z " fill="#F3F5F8" transform="translate(205,86)"/>
</svg>
