<?xml version="1.0" encoding="UTF-8"?>
<!-- Generator: visioncortex VTracer 0.6.5 -->
<svg version="1.1" xmlns="http://www.w3.org/2000/svg" width="1408" height="768">
<path d="M0,0 L1408,0 L1408,768 L0,768 Z " fill="#FEFEFE" transform="translate(0,0)"/>
<path d="M0,0 L5,0 L10,5 L15,13 L19,24 L21,34 L21,53 L17,69 L9,86 L-1,99 L-12,110 L-14,111 L-14,143 L-6,143 L2,146 L8,149 L16,156 L23,170 L24,173 L24,191 L19,204 L13,212 L5,219 L-7,225 L-11,225 L-11,246 L-15,262 L-22,274 L-31,282 L-43,288 L-55,292 L-62,291 L-76,285 L-86,278 L-96,269 L-104,259 L-111,245 L-114,234 L-114,222 L-109,227 L-94,241 L-78,253 L-75,253 L-68,245 L-64,243 L-53,243 L-47,247 L-43,252 L-43,264 L-47,270 L-54,275 L-42,275 L-32,270 L-26,262 L-22,249 L-21,228 L-32,228 L-48,224 L-61,217 L-68,211 L-76,200 L-81,187 L-82,181 L-82,165 L-78,149 L-71,136 L-60,122 L-47,109 L-33,98 L-22,89 L-10,78 L-1,67 L7,51 L9,42 L9,32 L7,25 L0,25 L-5,30 L-11,40 L-15,55 L-16,74 L-25,83 L-26,83 L-26,47 L-22,29 L-18,19 L-10,7 Z " fill="#3D5A8B" transform="translate(761,148)"/>
<path d="M0,0 L25,0 L37,2 L48,7 L54,11 L60,20 L61,27 L52,35 L43,42 L34,50 L33,50 L32,39 L29,33 L24,29 L19,27 L-4,27 L-6,40 L-11,69 L-14,80 L2,79 L12,77 L10,82 L6,94 L4,105 L3,106 L-19,107 L-24,135 L-28,156 L-28,173 L-24,186 L-17,198 L-8,207 L-11,207 L-28,193 L-45,176 L-54,163 L-58,154 L-58,145 L-53,117 L-46,83 L-41,57 L-36,30 L-32,9 L-30,6 L-14,2 Z " fill="#584AAE" transform="translate(668,209)"/>
<path d="M0,0 L4,1 L29,12 L35,14 L33,20 L28,32 L27,37 L18,34 L4,28 L0,27 L-15,34 L-41,44 L-69,53 L-94,60 L-104,62 L-105,70 L-105,100 L-101,134 L-97,153 L-93,165 L-94,173 L-101,206 L-104,203 L-113,184 L-120,163 L-124,147 L-128,120 L-130,102 L-130,59 L-129,45 L-127,42 L-101,36 L-72,28 L-39,17 L-15,7 Z " fill="#808AB2" transform="translate(703,145)"/>
<path d="M0,0 L17,0 L25,2 L37,8 L45,17 L50,30 L50,51 L47,61 L41,71 L33,77 L26,80 L7,80 L-1,77 L-1,106 L-22,106 L-22,5 L-5,1 Z " fill="#8C90C0" transform="translate(515,485)"/>
<path d="M0,0 L23,0 L35,5 L43,12 L48,20 L51,28 L51,53 L47,63 L40,72 L32,77 L22,80 L13,80 L4,78 L-2,75 L-2,105 L-18,105 L-18,5 L-13,3 Z " fill="#252931" transform="translate(686,486)"/>
<path d="M0,0 L3,0 L3,36 L10,34 L25,34 L35,38 L42,44 L47,54 L49,62 L49,113 L27,113 L26,65 L23,57 L18,54 L3,54 L3,113 L-19,113 L-19,4 L-6,1 Z " fill="#8B8FBF" transform="translate(600,451)"/>
<path d="M0,0 L7,0 L12,12 L19,21 L26,28 L39,38 L47,47 L51,56 L51,70 L47,81 L46,81 L44,72 L41,64 L33,57 L11,45 L10,44 L9,95 L5,104 L-2,110 L-10,113 L-20,113 L-26,110 L-31,105 L-31,94 L-25,86 L-17,81 L-14,80 L-3,80 L0,81 Z " fill="#3C5A8B" transform="translate(811,185)"/>
<path d="M0,0 L5,0 L10,5 L15,13 L16,25 L16,39 L12,56 L7,68 L1,78 L-8,89 L-18,99 L-29,108 L-43,120 L-54,130 L-64,143 L-70,155 L-74,168 L-74,193 L-77,193 L-80,187 L-81,187 L-82,181 L-82,165 L-78,149 L-71,136 L-60,122 L-47,109 L-33,98 L-22,89 L-10,78 L-1,67 L7,51 L9,42 L9,32 L7,25 L0,25 L-5,30 L-11,40 L-15,55 L-16,74 L-25,83 L-26,83 L-26,47 L-22,29 L-18,19 L-10,7 Z " fill="#848CB3" transform="translate(761,148)"/>
<path d="M0,0 L1,4 L-3,23 L-9,43 L-18,64 L-29,83 L-38,95 L-50,109 L-62,121 L-75,131 L-76,129 L-73,119 L-71,97 L-59,91 L-49,82 L-42,72 L-37,57 L-35,42 L-30,30 L-27,24 L-16,20 L-8,14 L-1,3 Z " fill="#3E4972" transform="translate(829,282)"/>
<path d="M0,0 L2,0 L2,24 L-9,30 L-16,37 L-22,49 L-22,62 L-17,72 L-11,77 L-11,75 L-13,69 L-13,60 L-8,50 L-2,45 L3,44 L4,51 L5,72 L5,96 L-9,96 L-19,92 L-25,88 L-32,81 L-36,73 L-38,67 L-38,48 L-33,36 L-26,25 L-17,15 L-3,3 L0,2 Z " fill="#F8FAFA" transform="translate(735,268)"/>
<path d="M0,0 L3,0 L4,68 L35,37 L47,37 L41,45 L15,71 L20,76 L35,91 L46,105 L51,113 L38,113 L30,103 L18,89 L7,79 L4,77 L3,113 L-8,113 L-8,2 Z " fill="#22262E" transform="translate(865,451)"/>
<path d="M0,0 L16,0 L24,4 L30,11 L32,17 L32,37 L27,46 L22,50 L17,52 L7,52 L-5,46 L-5,2 Z " fill="#FCFCFC" transform="translate(689,500)"/>
<path d="M0,0 L4,1 L29,12 L35,14 L33,20 L28,32 L27,37 L18,34 L4,28 L0,27 L-15,34 L-41,44 L-69,53 L-80,56 L-84,55 L-54,41 L-40,33 L-25,23 L-15,15 L-5,6 Z " fill="#757FAA" transform="translate(703,145)"/>
<path d="M0,0 L1,0 L5,25 L9,42 L15,59 L22,74 L33,94 L36,96 L35,104 L28,137 L25,134 L16,115 L9,94 L5,78 L1,51 L0,41 Z " fill="#424E7D" transform="translate(574,214)"/>
<path d="M0,0 L15,0 L27,3 L25,12 L17,11 L14,10 L3,10 L-6,14 L-11,19 L-15,26 L-17,32 L-17,47 L-12,60 L-4,67 L1,69 L16,69 L27,67 L28,69 L28,76 L19,79 L-1,79 L-10,76 L-16,72 L-24,63 L-28,52 L-29,46 L-29,31 L-25,19 L-18,10 L-10,4 Z " fill="#1F232A" transform="translate(814,486)"/>
<path d="M0,0 L7,0 L12,12 L19,21 L26,28 L39,38 L47,47 L51,56 L51,70 L47,81 L46,81 L44,72 L41,64 L33,57 L11,45 L10,44 L9,95 L7,100 L6,100 L7,44 L5,44 L5,20 L0,8 Z " fill="#4D6797" transform="translate(811,185)"/>
<path d="M0,0 L1,0 L2,7 L0,15 L-7,26 L-19,39 L-31,50 L-42,59 L-56,71 L-65,81 L-72,92 L-76,100 L-80,113 L-80,138 L-83,138 L-86,132 L-87,132 L-88,126 L-88,110 L-84,94 L-77,81 L-66,67 L-53,54 L-39,43 L-28,34 L-16,23 L-7,12 Z " fill="#6D7BA9" transform="translate(767,203)"/>
<path d="M0,0 L5,5 L20,19 L36,31 L38,34 L38,45 L40,53 L42,53 L48,60 L54,62 L75,63 L71,66 L59,70 L52,69 L38,63 L28,56 L18,47 L10,37 L3,23 L0,12 Z " fill="#394876" transform="translate(647,370)"/>
<path d="M0,0 L11,0 L17,4 L21,9 L21,21 L17,27 L10,32 L22,32 L27,31 L30,34 L30,36 L32,36 L33,39 L25,43 L4,42 L-3,39 L-8,34 L-8,32 L-10,32 L-13,24 L-13,11 L-8,6 L-2,1 Z " fill="#3D5B8E" transform="translate(697,391)"/>
<path d="M0,0 L12,0 L19,3 L24,9 L26,15 L26,28 L23,37 L17,42 L15,43 L6,43 L-1,40 L-2,39 L-2,1 Z " fill="#FCFCFD" transform="translate(517,504)"/>
<path d="M0,0 L1,4 L-3,23 L-9,43 L-18,64 L-29,83 L-34,84 L-34,77 L-30,61 L-29,53 L-29,33 L-30,30 L-27,24 L-16,20 L-8,14 L-1,3 Z " fill="#526998" transform="translate(829,282)"/>
<path d="M0,0 L7,1 L13,5 L19,12 L21,17 L21,29 L18,38 L9,48 L4,51 L2,51 L0,14 Z " fill="#F8FAFB" transform="translate(748,311)"/>
<path d="M0,0 L10,0 L10,76 L0,76 Z " fill="#13171E" transform="translate(756,488)"/>
<path d="M0,0 L2,0 L2,70 L-1,70 L-1,82 L-3,78 L-3,67 L-2,60 L-3,55 L-3,42 L-2,21 L-3,18 L-3,4 L-6,4 L-6,111 L-3,111 L-3,90 L-2,83 L-1,83 L0,112 L-8,112 L-8,2 Z M-3,60 Z " fill="#191D25" transform="translate(865,451)"/>
<path d="M0,0 L4,1 L4,93 L7,94 L4,95 L4,99 L14,99 L14,69 L15,69 L15,100 L0,100 Z M2,1 Z " fill="#171A22" transform="translate(668,491)"/>
<path d="M0,0 L11,0 L14,0 L17,0 L17,15 L25,15 L26,13 L27,0 L30,0 L30,16 L38,16 L38,18 L14,18 L12,18 L0,18 Z " fill="#F9F9F9" transform="translate(531,605)"/>
<path d="M0,0 L9,0 L11,1 L13,0 L24,0 L24,2 L16,2 L16,7 L23,7 L23,9 L16,9 L16,15 L25,15 L25,18 L14,18 L10,17 L9,18 L1,18 L-4,12 L-4,5 Z " fill="#EBECEB" transform="translate(581,605)"/>
<path d="M0,0 L2,0 L3,3 L4,30 L3,33 L5,33 L6,37 L11,38 L12,44 L14,44 L16,49 L18,49 L18,51 L20,51 L26,58 L28,55 L25,53 L25,44 L24,40 L24,25 L26,23 L27,42 L31,55 L38,67 L47,76 L44,76 L27,62 L10,45 L1,32 L-3,23 L-3,14 L-1,1 Z " fill="#612F9D" transform="translate(613,340)"/>
<path d="M0,0 L2,0 L3,3 L3,94 L2,99 L20,99 L20,71 L21,71 L21,100 L0,100 Z " fill="#8588B9" transform="translate(493,491)"/>
<path d="M0,0 L4,0 L5,75 L-5,75 L-5,74 L0,73 Z " fill="#20252E" transform="translate(761,489)"/>
<path d="M0,0 L8,0 L12,4 L12,12 L9,17 L7,18 L1,18 L-4,13 L-4,4 Z " fill="#F5F5F4" transform="translate(796,605)"/>
<path d="M0,0 L8,0 L12,4 L12,13 L7,18 L1,18 L-3,14 L-4,12 L-4,5 Z " fill="#EEEFEE" transform="translate(740,605)"/>
<path d="M0,0 L3,1 L-1,4 L-2,11 L-5,18 L-6,19 L-7,28 L-10,41 L-9,63 L-11,68 L-12,68 L-13,61 L-14,62 L-16,71 L-18,75 L-17,64 L-13,40 L-8,15 L-5,2 Z " fill="#516B97" transform="translate(642,214)"/>
<path d="M0,0 L6,0 L11,5 L10,12 L6,15 L0,15 L-4,11 L-5,5 Z " fill="#22272E" transform="translate(758,458)"/>
<path d="M0,0 L4,2 L10,10 L13,17 L13,31 L9,42 L8,42 L6,33 L4,25 L8,25 L7,10 L6,6 L3,7 L2,3 L0,2 Z M6,17 Z " fill="#435C85" transform="translate(849,224)"/>
<path d="M0,0 L2,0 L3,7 L2,8 L2,98 L20,99 L20,71 L21,71 L21,100 L0,100 Z " fill="#8184A9" transform="translate(493,491)"/>
<path d="M0,0 L6,0 L7,5 L6,7 L4,7 L6,11 L8,12 L8,9 L10,9 L10,15 L11,18 L6,17 L5,18 L-1,18 L-3,16 L-3,10 L-1,7 L-1,1 Z " fill="#777979" transform="translate(702,605)"/>
<path d="M0,0 L3,0 L3,15 L11,15 L12,13 L13,0 L16,0 L16,16 L24,16 L24,18 L0,18 Z " fill="#4E5050" transform="translate(545,605)"/>
<path d="M0,0 L9,0 L12,2 L12,8 L10,12 L12,17 L9,16 L7,11 L2,11 L2,18 L0,18 Z " fill="#222426" transform="translate(839,605)"/>
<path d="M0,0 L10,0 L12,2 L12,9 L9,11 L3,11 L3,18 L0,18 Z " fill="#2F3234" transform="translate(777,605)"/>
<path d="M0,0 L7,4 L11,5 L11,7 L15,8 L17,10 L12,9 L2,3 L1,54 L-1,59 L-2,59 L-1,1 Z " fill="#556889" transform="translate(819,226)"/>
<path d="M0,0 L4,1 L9,10 L14,0 L17,0 L18,18 L15,18 L14,6 L10,15 L7,15 L3,6 L2,18 L0,18 Z " fill="#2D3031" transform="translate(756,605)"/>
<path d="M0,0 L31,0 L34,2 L28,5 L9,5 L0,2 Z " fill="#878BB5" transform="translate(513,560)"/>
<path d="M0,0 L8,0 L11,1 L12,8 L8,11 L2,11 L2,17 L0,17 Z " fill="#1D2021" transform="translate(679,605)"/>
<path d="M0,0 L3,0 L8,10 L10,7 L14,0 L17,0 L17,18 L15,17 L14,5 L10,15 L7,15 L3,6 L2,18 L0,18 Z " fill="#272B2C" transform="translate(898,605)"/>
<path d="M0,0 L25,0 L29,2 L-4,3 L-7,4 L-4,7 L-20,7 L-21,4 L-14,2 Z " fill="#4A628F" transform="translate(668,209)"/>
<path d="M0,0 L8,0 L11,2 L11,9 L8,11 L2,11 L2,18 L0,18 Z " fill="#202324" transform="translate(647,605)"/>
<path d="M0,0 L1,0 L1,51 L-21,51 L-21,2 L-20,2 L-19,45 L-18,49 L0,50 Z " fill="#979BB6" transform="translate(648,513)"/>
<path d="M0,0 L0,3 L-10,13 L-15,15 L-23,14 L-25,11 L-9,4 Z " fill="#8F98B9" transform="translate(701,146)"/>
<path d="M0,0 L3,0 L3,42 L0,42 Z " fill="#151920" transform="translate(680,503)"/>
<path d="M0,0 L2,0 L2,22 L1,22 L0,13 L-5,19 L-7,18 L-7,6 Z " fill="#2E406D" transform="translate(744,261)"/>
<path d="M0,0 L8,0 L12,4 L12,12 L9,17 L7,18 L1,18 L-4,13 L-4,4 Z M1,2 L-1,4 L-1,13 L2,16 L7,15 L9,13 L9,4 L7,2 Z " fill="#313233" transform="translate(796,605)"/>
<path d="M0,0 L11,0 L11,2 L3,2 L3,7 L10,7 L10,10 L3,10 L3,15 L11,15 L12,18 L0,18 Z " fill="#464848" transform="translate(531,605)"/>
<path d="M0,0 L2,0 L2,7 L10,7 L10,0 L13,0 L13,18 L10,18 L10,10 L2,10 L2,18 L0,18 Z " fill="#404345" transform="translate(662,605)"/>
<path d="M0,0 L2,0 L2,7 L10,7 L10,0 L13,0 L13,18 L10,18 L10,10 L2,10 L2,18 L0,18 Z " fill="#4D5053" transform="translate(874,605)"/>
<path d="M0,0 L10,0 L10,2 L3,2 L3,7 L10,7 L10,10 L3,10 L3,15 L11,15 L11,18 L0,18 Z " fill="#424547" transform="translate(825,605)"/>
<path d="M0,0 L8,0 L12,4 L12,13 L7,18 L1,18 L-3,14 L-4,12 L-4,5 Z M1,2 L-1,4 L-1,13 L2,16 L8,15 L10,12 L10,6 L7,2 Z " fill="#1C1F21" transform="translate(740,605)"/>
<path d="M0,0 L2,3 L7,22 L8,27 L5,26 L-6,6 L-3,6 L-1,9 L-1,2 Z M-2,10 Z " fill="#636D95" transform="translate(601,282)"/>
<path d="M0,0 L3,1 L10,11 L11,0 L13,0 L13,17 L9,15 L3,6 L2,18 L0,18 Z " fill="#232626" transform="translate(500,605)"/>
<path d="M0,0 L4,2 L10,11 L11,0 L13,0 L13,17 L9,15 L3,5 L2,18 L0,18 Z " fill="#1F2323" transform="translate(609,605)"/>
<path d="M0,0 L2,0 L2,8 L13,6 L8,12 L0,19 L-1,19 L-2,5 L0,5 L-1,1 Z " fill="#5E36A7" transform="translate(702,240)"/>
<path d="M0,0 L1,0 L2,17 L0,22 L-1,22 L-2,15 L-3,16 L-5,25 L-7,29 L-6,18 L-4,6 Z " fill="#40549D" transform="translate(631,260)"/>
<path d="M0,0 L9,0 L10,2 L0,3 L0,13 L2,15 L8,16 L8,9 L10,9 L10,17 L9,18 L1,18 L-4,12 L-4,5 Z " fill="#36393A" transform="translate(581,605)"/>
<path d="M0,0 L10,0 L10,2 L2,2 L2,7 L9,7 L9,9 L2,9 L2,15 L11,15 L11,18 L0,18 Z " fill="#2F3131" transform="translate(595,605)"/>
<path d="M0,0 L2,3 L5,2 L4,11 L-1,24 L-2,20 L-3,11 Z " fill="#8290BC" transform="translate(770,190)"/>
<path d="M0,0 L2,2 L4,7 L8,8 L13,20 L14,24 L12,25 L4,14 L0,4 Z " fill="#546693" transform="translate(681,334)"/>
<path d="M0,0 L8,0 L8,2 L1,2 L2,6 L8,10 L9,15 L6,18 L-1,18 L-2,15 L5,15 L5,11 L-1,8 L-2,7 L-2,2 Z " fill="#313436" transform="translate(813,605)"/>
<path d="M0,0 L2,1 L3,7 L5,6 L4,19 L2,26 L0,26 Z " fill="#6124B1" transform="translate(640,325)"/>
<path d="M0,0 L9,0 L9,3 L0,3 L0,13 L2,15 L9,15 L8,18 L1,18 L-3,14 L-4,12 L-4,5 Z " fill="#3B3D3D" transform="translate(725,605)"/>
<path d="M0,0 L9,0 L9,2 L2,3 L2,6 L8,9 L9,10 L9,16 L7,18 L-1,18 L-1,15 L6,15 L7,11 L1,9 L-1,7 L-1,1 Z " fill="#232729" transform="translate(861,605)"/>
<path d="M0,0 L1,0 L1,19 L-9,19 L-9,15 L-6,13 L-1,13 L-1,2 Z " fill="#1D232A" transform="translate(681,571)"/>
<path d="M0,0 L2,3 L2,24 L-1,21 L-7,9 L-6,6 L-5,10 L-2,10 Z M-3,11 Z " fill="#303C6A" transform="translate(600,327)"/>
<path d="M0,0 L13,0 L13,2 L8,2 L8,18 L5,18 L5,2 L0,2 Z " fill="#37393A" transform="translate(625,605)"/>
<path d="M0,0 L7,0 L12,12 L17,20 L14,20 L9,11 L7,7 L4,7 L0,5 Z " fill="#7984A4" transform="translate(811,185)"/>
<path d="M0,0 L5,1 L5,4 L7,5 L-1,12 L-5,14 L-2,2 L0,2 Z " fill="#3A4261" transform="translate(758,399)"/>
<path d="M0,0 L5,1 L23,1 L25,3 L1,4 L0,11 L-2,11 L-1,5 Z " fill="#455087" transform="translate(663,232)"/>
<path d="M0,0 L1,4 L-3,27 L-5,25 L-5,11 L-3,11 L-1,2 Z " fill="#485391" transform="translate(661,245)"/>
<path d="M0,0 L2,2 L1,6 L-21,7 L-23,10 L-22,4 L-4,3 L-1,2 Z " fill="#5D3395" transform="translate(670,309)"/>
<path d="M0,0 L3,1 L-24,10 L-35,13 L-39,12 L-32,9 L-18,6 Z " fill="#626A8C" transform="translate(658,188)"/>
<path d="M0,0 L3,3 L2,26 L1,26 L0,20 L-2,22 L-2,13 Z " fill="#7548B1" transform="translate(612,341)"/>
<path d="M0,0 L3,4 L10,14 L17,21 L14,21 L0,10 L0,8 L2,7 L0,4 Z " fill="#5F3690" transform="translate(643,395)"/>
<path d="M0,0 L1,4 L-1,14 L-4,14 L-7,17 L-12,21 L-15,20 L-10,16 L-3,7 Z M-8,17 Z " fill="#6C7797" transform="translate(829,282)"/>
<path d="M0,0 L2,0 L2,6 L7,6 L6,1 L10,3 L10,0 L12,0 L12,6 L13,9 L8,8 L7,9 L1,9 L-1,7 L-1,1 Z " fill="#232626" transform="translate(700,614)"/>
<path d="M0,0 L1,3 L1,18 L-1,18 L-3,15 L-3,4 Z " fill="#38537F" transform="translate(783,275)"/>
<path d="M0,0 L13,0 L13,2 L7,2 L7,18 L5,18 L5,2 L0,2 Z " fill="#191C1D" transform="translate(516,605)"/>
<path d="M0,0 L8,5 L14,14 L15,21 L12,24 L10,23 L12,18 L9,10 L6,9 L3,4 L0,2 Z " fill="#614099" transform="translate(714,215)"/>
<path d="M0,0 L7,0 L14,3 L10,5 L-4,5 L-3,3 L1,2 Z " fill="#4F529B" transform="translate(698,211)"/>
<path d="M0,0 L13,0 L16,4 L0,4 L-1,1 Z " fill="#3F6098" transform="translate(648,212)"/>
<path d="M0,0 L3,1 L4,10 L10,10 L14,7 L15,10 L11,13 L5,13 L1,9 L0,7 Z " fill="#222425" transform="translate(736,610)"/>
<path d="M0,0 L3,0 L3,18 L0,18 Z " fill="#444545" transform="translate(571,605)"/>
<path d="M0,0 L3,0 L3,18 L0,18 Z " fill="#464B4E" transform="translate(891,605)"/>
<path d="M0,0 L1,0 L2,12 L-1,13 L-3,21 L-6,21 L-4,8 L-2,6 L-1,8 Z " fill="#14181F" transform="translate(795,525)"/>
<path d="M0,0 L8,0 L12,4 L12,12 L10,14 L8,4 L7,3 L1,3 L-3,4 Z " fill="#232527" transform="translate(796,605)"/>
<path d="M0,0 L3,1 L2,5 L1,6 L0,26 L-2,22 L-2,7 Z " fill="#2E3236" transform="translate(787,510)"/>
<path d="M0,0 L6,0 L8,2 L7,6 L0,7 Z " fill="#E4E5E5" transform="translate(681,607)"/>
<path d="M0,0 L1,0 L1,9 L-1,11 L-3,20 L-5,24 L-4,13 L-2,1 Z " fill="#51619C" transform="translate(629,265)"/>
<path d="M0,0 L2,1 L-11,13 L-12,13 L-12,7 L-9,8 L-6,2 Z " fill="#65399E" transform="translate(713,246)"/>
<path d="M0,0 L6,0 L7,1 L7,6 L6,7 L0,7 Z " fill="#DCDCDC" transform="translate(841,607)"/>
<path d="M0,0 L6,0 L7,1 L7,6 L0,7 Z " fill="#EFF0F0" transform="translate(649,607)"/>
<path d="M0,0 L4,0 L3,4 L-3,5 L-3,13 L-5,14 L-5,4 L-3,1 Z " fill="#8E95B4" transform="translate(579,186)"/>
<path d="M0,0 L2,1 L2,7 L0,11 L2,16 L-1,15 L-3,10 L-8,10 L-8,9 L-2,9 Z " fill="#303233" transform="translate(849,606)"/>
<path d="M0,0 L6,0 L7,5 L5,7 L0,7 Z " fill="#F0F1F0" transform="translate(780,607)"/>
<path d="M0,0 L2,0 L2,17 L0,17 L0,9 L-9,9 L-9,8 L0,8 Z " fill="#1D2123" transform="translate(885,605)"/>
<path d="M0,0 L4,0 L6,3 L7,6 L3,7 L1,9 L1,6 L-2,6 L-1,2 Z " fill="#11161D" transform="translate(758,458)"/>
<path d="M0,0 L0,3 L-6,8 L-14,15 L-17,15 L-13,10 Z " fill="#7D84A5" transform="translate(727,247)"/>
<path d="M0,0 L1,0 L2,22 L3,24 L6,24 L0,29 Z " fill="#7A7D99" transform="translate(735,202)"/>
<path d="M0,0 L2,0 L2,8 L1,9 L-7,9 L-10,6 L-9,3 L-6,6 L0,7 Z " fill="#212424" transform="translate(589,614)"/>
<path d="M0,0 L6,0 L3,2 L2,18 L0,18 Z " fill="#3E4143" transform="translate(777,605)"/>
<path d="M0,0 L3,3 L5,9 L5,16 L2,15 L0,4 Z " fill="#475A82" transform="translate(775,163)"/>
<path d="M0,0 L2,0 L-1,9 L-5,10 L-5,2 L-3,1 L-1,3 Z " fill="#4F648B" transform="translate(813,335)"/>
<path d="M0,0 L11,0 L12,2 L0,3 L-4,5 L-7,3 Z " fill="#55698C" transform="translate(797,265)"/>
<path d="M0,0 L1,0 L1,6 L-7,16 L-8,13 L-2,3 Z " fill="#7F86A9" transform="translate(767,203)"/>
<path d="M0,0 L9,0 L9,2 L2,3 L2,6 L4,7 L4,9 L0,8 L-1,7 L-1,1 Z " fill="#1F2122" transform="translate(861,605)"/>
<path d="M0,0 L3,1 L2,18 L0,18 Z " fill="#1C1D1D" transform="translate(609,605)"/>
<path d="M0,0 L1,0 L2,18 L-1,18 L-1,6 Z " fill="#474B4B" transform="translate(772,605)"/>
<path d="M0,0 L11,0 L11,2 L5,3 L5,4 L-6,3 L-6,2 L0,2 Z " fill="#181C23" transform="translate(700,496)"/>
<path d="M0,0 L3,1 L-1,4 L-2,11 L-4,12 L-5,2 Z " fill="#3F5C8D" transform="translate(642,214)"/>
<path d="M0,0 L2,0 L2,17 L-1,16 Z " fill="#1A1D1E" transform="translate(511,605)"/>
<path d="M0,0 L4,1 L11,4 L11,5 L0,5 L-2,3 Z M0,3 Z " fill="#7F85A8" transform="translate(703,145)"/>
<path d="M0,0 L15,0 L13,2 L10,4 L3,3 Z " fill="#1B1E25" transform="translate(685,560)"/>
<path d="M0,0 L2,1 L-4,11 L-6,8 L-4,2 L0,2 Z " fill="#445D86" transform="translate(806,350)"/>
<path d="M0,0 L2,2 L2,16 L0,16 L-2,11 Z " fill="#313D6A" transform="translate(590,312)"/>
<path d="M0,0 L1,0 L0,13 L-3,12 L-2,2 Z " fill="#6B35A6" transform="translate(644,331)"/>
<path d="M0,0 L4,1 L6,5 L5,6 L0,6 L-1,1 Z " fill="#D7D9D8" transform="translate(702,615)"/>
<path d="M0,0 L17,2 L17,3 L-2,3 Z " fill="#2E4C7C" transform="translate(789,269)"/>
<path d="M0,0 L5,2 L7,5 L7,10 L5,11 L5,6 L3,6 L1,4 Z " fill="#2D3237" transform="translate(762,458)"/>
<path d="M0,0 L4,4 L11,4 L10,7 L3,7 L-1,3 Z " fill="#292B2B" transform="translate(723,616)"/>
<path d="M0,0 L17,0 L14,3 L8,4 L7,2 L0,1 Z " fill="#161A20" transform="translate(704,560)"/>
<path d="M0,0 L10,3 L9,6 L5,7 L5,5 L3,5 Z " fill="#365180" transform="translate(724,422)"/>
<path d="M0,0 L1,0 L1,16 L0,18 L-2,18 Z " fill="#3A4575" transform="translate(583,280)"/>
<path d="M0,0 L4,0 L5,4 L1,4 L0,11 L-2,11 L-1,5 Z " fill="#455993" transform="translate(663,232)"/>
<path d="M0,0 L3,1 L2,20 L1,20 Z " fill="#49409D" transform="translate(621,300)"/>
<path d="M0,0 L2,0 L2,6 L7,7 L7,9 L1,9 L-1,7 L-1,1 Z " fill="#2C2E2E" transform="translate(700,614)"/>
<path d="M0,0 L3,0 L3,9 L0,9 Z " fill="#353738" transform="translate(792,609)"/>
<path d="M0,0 L2,0 L3,3 L-3,10 L-4,6 L-3,4 L-1,4 Z " fill="#515E81" transform="translate(790,372)"/>
<path d="M0,0 L4,4 L2,5 L2,13 L0,12 Z " fill="#49506C" transform="translate(647,370)"/>
<path d="M0,0 L2,0 L-1,12 L-3,15 L-3,8 L-2,3 L0,3 Z " fill="#5A3590" transform="translate(675,291)"/>
<path d="M0,0 L8,0 L8,2 L1,3 L-1,7 L-2,7 L-2,2 Z " fill="#1E2021" transform="translate(813,605)"/>
<path d="M0,0 L2,4 L2,6 L4,6 L3,10 L-2,10 Z " fill="#435A88" transform="translate(794,359)"/>
<path d="M0,0 L2,4 L2,15 L1,15 L0,7 L-2,8 L-2,3 Z " fill="#36527E" transform="translate(747,334)"/>
<path d="M0,0 L2,0 L3,8 L2,13 L0,11 Z " fill="#52569C" transform="translate(656,259)"/>
<path d="M0,0 L1,0 L2,15 L-1,14 Z " fill="#375079" transform="translate(721,327)"/>
<path d="M0,0 L3,1 L4,9 L1,9 L0,7 Z " fill="#313334" transform="translate(736,610)"/>
<path d="M0,0 L9,0 L9,3 L2,3 L-1,4 Z " fill="#282B2C" transform="translate(725,605)"/>
<path d="M0,0 L8,0 L10,2 L2,2 L2,9 L1,9 Z " fill="#121718" transform="translate(679,605)"/>
<path d="M0,0 L5,5 L11,9 L10,11 L2,5 L-1,1 Z " fill="#4B6187" transform="translate(695,357)"/>
<path d="M0,0 L2,4 L6,5 L6,10 L4,11 L0,3 Z M4,5 Z " fill="#404967" transform="translate(593,333)"/>
<path d="M0,0 L2,1 L1,16 L0,16 L-1,8 L-2,5 Z " fill="#4E5B81" transform="translate(801,307)"/>
<path d="M0,0 L1,0 L3,16 L0,15 Z " fill="#515D8D" transform="translate(575,221)"/>
<path d="M0,0 L2,4 L1,9 L-1,13 L-3,13 Z M2,3 Z " fill="#9299B7" transform="translate(770,190)"/>
<path d="M0,0 L7,1 L6,4 L-3,3 Z " fill="#292C34" transform="translate(707,561)"/>
<path d="M0,0 L1,0 L3,6 L4,9 L0,8 L-2,6 L-1,2 Z " fill="#6025A6" transform="translate(642,394)"/>
<path d="M0,0 L3,2 L2,11 L0,11 Z " fill="#5D249B" transform="translate(640,340)"/>
<path d="M0,0 L2,3 L1,6 L-1,7 L-7,7 L-7,5 L0,4 Z " fill="#2F3234" transform="translate(656,609)"/>
<path d="M0,0 L5,0 L2,2 L3,9 L1,9 L1,7 L-1,7 L-1,1 Z " fill="#18191A" transform="translate(702,605)"/>
<path d="M0,0 L3,0 L6,7 L4,8 L2,4 L0,7 Z " fill="#383B3C" transform="translate(898,605)"/>
<path d="M0,0 L9,0 L5,3 L-1,4 Z " fill="#32446D" transform="translate(713,433)"/>
<path d="M0,0 L2,1 L3,4 L5,5 L6,3 L8,9 L3,7 L0,4 Z " fill="#536582" transform="translate(718,337)"/>
<path d="M0,0 L2,3 L2,12 L1,12 L1,5 L-3,6 L-1,1 Z " fill="#304D7A" transform="translate(718,306)"/>
<path d="M0,0 L4,2 L9,8 L7,10 L6,6 L3,7 L2,3 L0,2 Z " fill="#4B6285" transform="translate(849,224)"/>
<path d="M0,0 L2,0 L2,6 L0,6 L-3,10 L-2,4 Z " fill="#1A1D1F" transform="translate(770,605)"/>
<path d="M0,0 L2,3 L2,9 L-1,6 L-2,1 Z " fill="#393F5D" transform="translate(600,342)"/>
<path d="M0,0 L4,4 L2,9 L0,10 Z " fill="#36537F" transform="translate(776,305)"/>
<path d="M0,0 L3,1 L-3,8 L-4,8 L-4,2 L-1,3 Z " fill="#5F4086" transform="translate(705,251)"/>
<path d="M0,0 L6,1 L3,7 L0,5 Z " fill="#5B2F9B" transform="translate(701,248)"/>
<path d="M0,0 L5,1 L6,2 L6,8 L4,4 L-3,2 Z " fill="#1B1E1F" transform="translate(783,605)"/>
<path d="M0,0 L2,2 L2,7 L-1,9 L-3,7 L-1,6 L-2,1 Z " fill="#303132" transform="translate(689,606)"/>
<path d="M0,0 L9,0 L10,2 L1,3 L-1,1 Z " fill="#242626" transform="translate(581,605)"/>
<path d="M0,0 L4,1 L8,4 L3,6 L0,2 Z " fill="#161A20" transform="translate(804,493)"/>
<path d="M0,0 L2,0 L2,3 L4,3 L4,5 L-3,4 L-2,1 Z " fill="#374065" transform="translate(773,371)"/>
<path d="M0,0 L9,3 L11,7 L6,5 L0,1 Z " fill="#40577C" transform="translate(838,237)"/>
<path d="M0,0 L1,0 L0,9 L-2,11 L-2,4 Z " fill="#3B547C" transform="translate(779,205)"/>
<path d="M0,0 L1,0 L1,10 L-1,7 L-3,8 L-1,1 Z " fill="#D3D6D7" transform="translate(912,609)"/>
<path d="M0,0 L2,2 L0,2 L-1,6 L-6,7 Z " fill="#272B30" transform="translate(884,504)"/>
<path d="M0,0 L4,0 L4,4 L1,5 L-2,3 Z " fill="#1B1F27" transform="translate(758,458)"/>
<path d="M0,0 L4,1 L10,8 L6,6 L0,1 Z " fill="#6F5C87" transform="translate(650,409)"/>
<path d="M0,0 L1,0 L1,8 L-2,11 L-1,1 Z " fill="#576C97" transform="translate(630,253)"/>
<path d="M0,0 L1,4 L0,9 L-5,7 L-1,6 L-1,1 Z " fill="#7A7F9B" transform="translate(730,173)"/>
<path d="M0,0 L1,0 L1,12 L0,12 L-1,7 L-2,3 L0,3 Z " fill="#D2D3D3" transform="translate(897,611)"/>
<path d="M0,0 L5,5 L8,10 L5,9 L0,3 Z " fill="#2C3033" transform="translate(906,551)"/>
<path d="M0,0 L3,1 L2,6 L0,7 L-1,2 Z " fill="#24272D" transform="translate(788,538)"/>
<path d="M0,0 L1,3 L-1,6 L-2,8 L-5,4 L-3,4 L-3,2 Z " fill="#161920" transform="translate(888,535)"/>
<path d="M0,0 L4,2 L6,5 L5,9 Z " fill="#414C70" transform="translate(654,401)"/>
<path d="M0,0 L4,1 L4,8 L1,5 Z " fill="#323C61" transform="translate(651,393)"/>
<path d="M0,0 L2,1 L4,6 L4,9 L1,8 Z " fill="#546DA4" transform="translate(688,344)"/>
<path d="M0,0 L1,0 L2,9 L-1,9 L-1,1 Z " fill="#405B8C" transform="translate(809,336)"/>
<path d="M0,0 L1,0 L1,8 L-1,10 L-2,6 Z " fill="#5F6B9A" transform="translate(687,290)"/>
<path d="M0,0 L7,0 L5,4 L-1,2 Z " fill="#5D589F" transform="translate(688,234)"/>
<path d="M0,0 L8,1 L8,3 L0,3 Z " fill="#2B2C2D" transform="translate(860,620)"/>
<path d="M0,0 L9,1 L8,3 L1,3 Z " fill="#242526" transform="translate(811,620)"/>
<path d="M0,0 L1,0 L2,9 L-1,11 L-3,9 L-1,7 Z " fill="#4E4F51" transform="translate(805,611)"/>
<path d="M0,0 L3,1 L2,8 L0,9 Z " fill="#151717" transform="translate(609,605)"/>
<path d="M0,0 L5,2 L5,7 L2,3 L-4,2 Z " fill="#161A1B" transform="translate(653,605)"/>
<path d="M0,0 L4,2 L0,4 L-3,3 L-5,1 Z " fill="#363A3F" transform="translate(835,554)"/>
<path d="M0,0 L2,1 L-1,9 L-3,8 L-2,2 Z " fill="#373A3E" transform="translate(756,459)"/>
<path d="M0,0 L1,0 L3,8 L1,8 L-1,10 Z " fill="#3F5780" transform="translate(740,393)"/>
<path d="M0,0 L1,2 L0,7 L-4,6 L-2,2 Z " fill="#323B5C" transform="translate(783,361)"/>
<path d="M0,0 L4,1 L7,5 L3,5 L2,3 L-1,1 Z " fill="#455D82" transform="translate(769,299)"/>
<path d="M0,0 L5,2 L8,5 L8,7 L5,7 Z " fill="#65509F" transform="translate(694,238)"/>
<path d="M0,0 L7,0 L3,2 L0,4 L-3,3 Z " fill="#161919" transform="translate(796,605)"/>
<path d="M0,0 L6,1 L5,6 L0,2 Z M6,0 Z " fill="#12161B" transform="translate(793,551)"/>
<path d="M0,0 L2,0 L0,5 L-3,5 L-4,1 Z " fill="#6F5397" transform="translate(678,286)"/>
<path d="M0,0 L2,1 L1,7 L-1,8 Z M-2,8 Z " fill="#3A5581" transform="translate(857,233)"/>
</svg>
